<svg width="1331" height="1020" viewBox="0 0 1331 1020" fill="none" xmlns="http://www.w3.org/2000/svg">
<rect width="1331" height="1020" rx="50" fill="white" fill-opacity="0.1"/>
<path d="M1245.6 434.461C1240.94 363.041 1197.62 294.911 1134.05 242.992C1096.85 212.611 1052.52 186.239 1004.61 166.003C954.784 145.012 900.603 121.451 841.521 118.932C826.875 118.114 812.186 119.266 797.845 122.359C743.425 134.988 853.956 173.405 868.44 179.06C714.387 136.958 555.039 94.223 389.15 102.157C357.242 103.682 324.088 107.417 296.486 120.474C268.883 133.531 248.164 157.915 253.425 181.562C257.78 201.096 277.731 222.686 260.616 238.331C255.731 242.837 248.659 245.579 241.656 247.978C205.786 260.315 166.893 267.221 133.124 282.643C80.8561 306.546 46.3527 349.145 31.4752 393.491C16.5977 437.837 19.5185 484.034 28.059 528.637C44.2859 612.6 81.898 695.397 153.382 759.398C255.474 850.831 418.136 895.023 579.226 899.41C774.188 904.722 982.882 850.403 1106.34 732.461C1124.65 714.966 1141.31 695.654 1147.34 674.081C1153.37 652.508 1146.72 628.21 1124.72 614.604C1118.81 610.937 1111.21 607.082 1111.57 601.188C1112.07 593.202 1125.63 590.221 1136 588.319C1203.98 575.879 1240.55 517.002 1245.31 464.671C1246.19 454.624 1246.29 444.523 1245.6 434.461Z" fill="#92E3A9"/>
<path opacity="0.7" d="M1245.6 434.461C1240.94 363.041 1197.62 294.911 1134.05 242.992C1096.85 212.611 1052.52 186.239 1004.61 166.003C954.784 145.012 900.603 121.451 841.521 118.932C826.875 118.114 812.186 119.266 797.845 122.359C743.425 134.988 853.956 173.405 868.44 179.06C714.387 136.958 555.039 94.223 389.15 102.157C357.242 103.682 324.088 107.417 296.486 120.474C268.883 133.531 248.164 157.915 253.425 181.562C257.78 201.096 277.731 222.686 260.616 238.331C255.731 242.837 248.659 245.579 241.656 247.978C205.786 260.315 166.893 267.221 133.124 282.643C80.8561 306.546 46.3527 349.145 31.4752 393.491C16.5977 437.837 19.5185 484.034 28.059 528.637C44.2859 612.6 81.898 695.397 153.382 759.398C255.474 850.831 418.136 895.023 579.226 899.41C774.188 904.722 982.882 850.403 1106.34 732.461C1124.65 714.966 1141.31 695.654 1147.34 674.081C1153.37 652.508 1146.72 628.21 1124.72 614.604C1118.81 610.937 1111.21 607.082 1111.57 601.188C1112.07 593.202 1125.63 590.221 1136 588.319C1203.98 575.879 1240.55 517.002 1245.31 464.671C1246.19 454.624 1246.29 444.523 1245.6 434.461Z" fill="white"/>
<path opacity="0.3" d="M1130.38 125.409C1130.38 125.409 1117.97 91.1677 1086.93 94.2834C1055.89 97.3992 1062.1 125.409 1043.49 130.075C1024.88 134.741 1018.66 116.062 1000.04 122.293C981.409 128.525 984.516 140.956 976.708 145.638C968.9 150.319 965.857 134.74 947.229 144.04C928.601 153.339 924.012 162.734 924.012 162.734H1190.9C1190.9 162.734 1184.69 140.94 1170.73 133.175C1156.77 125.409 1142.8 131.625 1130.38 125.409Z" stroke="black" stroke-miterlimit="10"/>
<path opacity="0.3" d="M826.011 132.887C823.238 128.365 820.609 123.555 815.542 119.912C805.423 112.658 793.233 106.523 780.406 107.689C755.754 110.006 758.001 125.665 747.914 131.289C737.828 136.913 734.465 127.917 724.395 130.17C714.324 132.423 712.061 136.913 707.583 139.15C703.106 141.387 696.429 125.665 679.57 130.17C662.711 134.676 653.803 154.889 645.947 156.007C638.092 157.126 634.793 149.264 626.905 152.636C621.75 155.024 617.148 158.463 613.393 162.734H900.22C900.22 162.734 891.264 135.779 874.469 134.644C861.578 133.766 845.053 151.214 832.895 141.499C830.111 139.059 827.78 136.143 826.011 132.887Z" stroke="black" stroke-miterlimit="10"/>
<path opacity="0.3" d="M242.367 144.872C240.834 141.897 238.702 139.274 236.104 137.17C230.049 132.84 222.735 129.181 215.07 129.852C200.315 131.21 201.669 140.622 195.63 143.977C189.591 147.333 187.583 141.964 181.559 143.242C175.536 144.52 174.182 147.285 171.504 148.627C168.827 149.969 164.796 140.558 154.725 143.242C144.654 145.926 139.3 158.038 134.615 158.709C129.931 159.38 127.891 154.746 123.19 156.696C120.144 158.138 117.43 160.2 115.223 162.752H286.841C286.841 162.752 281.471 146.614 271.432 145.942C263.703 145.415 253.824 155.865 246.542 150.049C244.86 148.581 243.447 146.828 242.367 144.872Z" stroke="black" stroke-miterlimit="10"/>
<g opacity="0.31">
<path d="M111.781 243.952V400.06H132.528V593.989H156.447V304.494H201.112V187.197H272.898V403.208H300.004V317.277H360.62V336.195H412.456V591.624H433.203V545.111H489.819V590.841H516.94V264.532H608.661V576.652H634.97" stroke="black" stroke-miterlimit="10"/>
<path d="M97.9664 243.953H111.782V233.71H96.5801" stroke="black" stroke-miterlimit="10"/>
<path d="M201.112 304.495H156.176V309.688H201.112V304.495Z" stroke="black" stroke-miterlimit="10"/>
<path d="M272.898 187.197H200.904V192.246H272.898V187.197Z" stroke="black" stroke-miterlimit="10"/>
<path d="M316.21 306.555H305.725V317.261H316.21V306.555Z" stroke="black" stroke-miterlimit="10"/>
<path d="M343.457 311.044H338.215V317.26H343.457V311.044Z" stroke="black" stroke-miterlimit="10"/>
<path d="M412.63 336.195H360.619V342.475H412.63V336.195Z" stroke="black" stroke-miterlimit="10"/>
<path d="M608.646 259.85H516.941V264.531H608.646V259.85Z" stroke="black" stroke-miterlimit="10"/>
<path d="M576.839 250.519H540.508V259.85H576.839V250.519Z" stroke="black" stroke-miterlimit="10"/>
<path d="M569.158 250.871V242.227H595.722V259.5" stroke="black" stroke-miterlimit="10"/>
<path d="M394.146 333.622V263.829H478.187V321.654H507.109V223.276H614.971V342.25H621.855" stroke="black" stroke-miterlimit="10"/>
<path d="M333.627 299.061V221.95H276.469" stroke="black" stroke-miterlimit="10"/>
<path d="M153.418 318.331H134.599V264.484H116.434" stroke="black" stroke-miterlimit="10"/>
<path d="M213.765 202.008H206.547V215.973H213.765V202.008Z" stroke="black" stroke-miterlimit="10"/>
<path d="M226.752 202.008H219.533V215.973H226.752V202.008Z" stroke="black" stroke-miterlimit="10"/>
<path d="M239.738 202.008H232.52V215.973H239.738V202.008Z" stroke="black" stroke-miterlimit="10"/>
<path d="M252.724 202.008H245.506V215.973H252.724V202.008Z" stroke="black" stroke-miterlimit="10"/>
<path d="M265.713 202.008H258.494V215.973H265.713V202.008Z" stroke="black" stroke-miterlimit="10"/>
<path d="M213.765 225.609H206.547V239.574H213.765V225.609Z" stroke="black" stroke-miterlimit="10"/>
<path d="M226.752 225.609H219.533V239.574H226.752V225.609Z" stroke="black" stroke-miterlimit="10"/>
<path d="M239.738 225.609H232.52V239.574H239.738V225.609Z" stroke="black" stroke-miterlimit="10"/>
<path d="M252.724 225.609H245.506V239.574H252.724V225.609Z" stroke="black" stroke-miterlimit="10"/>
<path d="M265.713 225.609H258.494V239.574H265.713V225.609Z" stroke="black" stroke-miterlimit="10"/>
<path d="M213.765 249.208H206.547V263.174H213.765V249.208Z" stroke="black" stroke-miterlimit="10"/>
<path d="M226.752 249.208H219.533V263.174H226.752V249.208Z" stroke="black" stroke-miterlimit="10"/>
<path d="M239.738 249.208H232.52V263.174H239.738V249.208Z" stroke="black" stroke-miterlimit="10"/>
<path d="M252.724 249.208H245.506V263.174H252.724V249.208Z" stroke="black" stroke-miterlimit="10"/>
<path d="M265.713 249.208H258.494V263.174H265.713V249.208Z" stroke="black" stroke-miterlimit="10"/>
<path d="M213.765 272.794H206.547V286.759H213.765V272.794Z" stroke="black" stroke-miterlimit="10"/>
<path d="M226.752 272.794H219.533V286.759H226.752V272.794Z" stroke="black" stroke-miterlimit="10"/>
<path d="M239.738 272.794H232.52V286.759H239.738V272.794Z" stroke="black" stroke-miterlimit="10"/>
<path d="M252.724 272.794H245.506V286.759H252.724V272.794Z" stroke="black" stroke-miterlimit="10"/>
<path d="M265.713 272.794H258.494V286.759H265.713V272.794Z" stroke="black" stroke-miterlimit="10"/>
<path d="M213.765 296.392H206.547V310.357H213.765V296.392Z" stroke="black" stroke-miterlimit="10"/>
<path d="M226.752 296.392H219.533V310.357H226.752V296.392Z" stroke="black" stroke-miterlimit="10"/>
<path d="M239.738 296.392H232.52V310.357H239.738V296.392Z" stroke="black" stroke-miterlimit="10"/>
<path d="M252.724 296.392H245.506V310.357H252.724V296.392Z" stroke="black" stroke-miterlimit="10"/>
<path d="M265.713 296.392H258.494V310.357H265.713V296.392Z" stroke="black" stroke-miterlimit="10"/>
<path d="M213.765 319.994H206.547V333.959H213.765V319.994Z" stroke="black" stroke-miterlimit="10"/>
<path d="M226.752 319.994H219.533V333.959H226.752V319.994Z" stroke="black" stroke-miterlimit="10"/>
<path d="M239.738 319.994H232.52V333.959H239.738V319.994Z" stroke="black" stroke-miterlimit="10"/>
<path d="M252.724 319.994H245.506V333.959H252.724V319.994Z" stroke="black" stroke-miterlimit="10"/>
<path d="M265.713 319.994H258.494V333.959H265.713V319.994Z" stroke="black" stroke-miterlimit="10"/>
<path d="M169.482 319.994H162.264V333.959H169.482V319.994Z" stroke="black" stroke-miterlimit="10"/>
<path d="M182.468 319.994H175.25V333.959H182.468V319.994Z" stroke="black" stroke-miterlimit="10"/>
<path d="M195.455 319.994H188.236V333.959H195.455V319.994Z" stroke="black" stroke-miterlimit="10"/>
<path d="M169.482 342.921H162.264V356.886H169.482V342.921Z" stroke="black" stroke-miterlimit="10"/>
<path d="M182.468 342.921H175.25V356.886H182.468V342.921Z" stroke="black" stroke-miterlimit="10"/>
<path d="M195.455 342.921H188.236V356.886H195.455V342.921Z" stroke="black" stroke-miterlimit="10"/>
<path d="M169.482 365.85H162.264V379.815H169.482V365.85Z" stroke="black" stroke-miterlimit="10"/>
<path d="M182.468 365.85H175.25V379.815H182.468V365.85Z" stroke="black" stroke-miterlimit="10"/>
<path d="M195.455 365.85H188.236V379.815H195.455V365.85Z" stroke="black" stroke-miterlimit="10"/>
<path d="M169.482 388.78H162.264V402.745H169.482V388.78Z" stroke="black" stroke-miterlimit="10"/>
<path d="M182.468 388.78H175.25V402.745H182.468V388.78Z" stroke="black" stroke-miterlimit="10"/>
<path d="M195.455 388.78H188.236V402.745H195.455V388.78Z" stroke="black" stroke-miterlimit="10"/>
<path d="M169.482 411.708H162.264V425.673H169.482V411.708Z" stroke="black" stroke-miterlimit="10"/>
<path d="M182.468 411.708H175.25V425.673H182.468V411.708Z" stroke="black" stroke-miterlimit="10"/>
<path d="M195.455 411.708H188.236V425.673H195.455V411.708Z" stroke="black" stroke-miterlimit="10"/>
<path d="M169.482 434.638H162.264V448.603H169.482V434.638Z" stroke="black" stroke-miterlimit="10"/>
<path d="M182.468 434.638H175.25V448.603H182.468V434.638Z" stroke="black" stroke-miterlimit="10"/>
<path d="M195.455 434.638H188.236V448.603H195.455V434.638Z" stroke="black" stroke-miterlimit="10"/>
<path d="M169.482 457.582H162.264V471.547H169.482V457.582Z" stroke="black" stroke-miterlimit="10"/>
<path d="M182.468 457.582H175.25V471.547H182.468V457.582Z" stroke="black" stroke-miterlimit="10"/>
<path d="M195.455 457.582H188.236V471.547H195.455V457.582Z" stroke="black" stroke-miterlimit="10"/>
<path d="M169.482 480.512H162.264V494.477H169.482V480.512Z" stroke="black" stroke-miterlimit="10"/>
<path d="M182.468 480.512H175.25V494.477H182.468V480.512Z" stroke="black" stroke-miterlimit="10"/>
<path d="M195.455 480.512H188.236V494.477H195.455V480.512Z" stroke="black" stroke-miterlimit="10"/>
<path d="M169.482 503.44H162.264V517.405H169.482V503.44Z" stroke="black" stroke-miterlimit="10"/>
<path d="M182.468 503.44H175.25V517.405H182.468V503.44Z" stroke="black" stroke-miterlimit="10"/>
<path d="M195.455 503.44H188.236V517.405H195.455V503.44Z" stroke="black" stroke-miterlimit="10"/>
<path d="M169.482 526.368H162.264V540.333H169.482V526.368Z" stroke="black" stroke-miterlimit="10"/>
<path d="M182.468 526.368H175.25V540.333H182.468V526.368Z" stroke="black" stroke-miterlimit="10"/>
<path d="M195.455 526.368H188.236V540.333H195.455V526.368Z" stroke="black" stroke-miterlimit="10"/>
<path d="M169.482 549.297H162.264V563.262H169.482V549.297Z" stroke="black" stroke-miterlimit="10"/>
<path d="M182.468 549.297H175.25V563.262H182.468V549.297Z" stroke="black" stroke-miterlimit="10"/>
<path d="M195.455 549.297H188.236V563.262H195.455V549.297Z" stroke="black" stroke-miterlimit="10"/>
<path d="M285.297 414.376H278.078V428.341H285.297V414.376Z" stroke="black" stroke-miterlimit="10"/>
<path d="M298.283 414.376H291.064V428.341H298.283V414.376Z" stroke="black" stroke-miterlimit="10"/>
<path d="M285.297 437.306H278.078V451.271H285.297V437.306Z" stroke="black" stroke-miterlimit="10"/>
<path d="M298.283 437.306H291.064V451.271H298.283V437.306Z" stroke="black" stroke-miterlimit="10"/>
<path d="M285.297 460.234H278.078V474.199H285.297V460.234Z" stroke="black" stroke-miterlimit="10"/>
<path d="M298.283 460.234H291.064V474.199H298.283V460.234Z" stroke="black" stroke-miterlimit="10"/>
<path d="M285.297 483.163H278.078V497.128H285.297V483.163Z" stroke="black" stroke-miterlimit="10"/>
<path d="M298.283 483.163H291.064V497.128H298.283V483.163Z" stroke="black" stroke-miterlimit="10"/>
<path d="M285.297 506.092H278.078V520.057H285.297V506.092Z" stroke="black" stroke-miterlimit="10"/>
<path d="M298.283 506.092H291.064V520.057H298.283V506.092Z" stroke="black" stroke-miterlimit="10"/>
<path d="M285.297 529.021H278.078V542.986H285.297V529.021Z" stroke="black" stroke-miterlimit="10"/>
<path d="M298.283 529.021H291.064V542.986H298.283V529.021Z" stroke="black" stroke-miterlimit="10"/>
<path d="M285.297 551.95H278.078V565.915H285.297V551.95Z" stroke="black" stroke-miterlimit="10"/>
<path d="M298.283 551.95H291.064V565.915H298.283V551.95Z" stroke="black" stroke-miterlimit="10"/>
<path d="M213.765 343.593H206.547V357.558H213.765V343.593Z" stroke="black" stroke-miterlimit="10"/>
<path d="M226.752 343.593H219.533V357.558H226.752V343.593Z" stroke="black" stroke-miterlimit="10"/>
<path d="M239.738 343.593H232.52V357.558H239.738V343.593Z" stroke="black" stroke-miterlimit="10"/>
<path d="M252.724 343.593H245.506V357.558H252.724V343.593Z" stroke="black" stroke-miterlimit="10"/>
<path d="M265.713 343.593H258.494V357.558H265.713V343.593Z" stroke="black" stroke-miterlimit="10"/>
<path d="M213.765 367.176H206.547V381.141H213.765V367.176Z" stroke="black" stroke-miterlimit="10"/>
<path d="M226.752 367.176H219.533V381.141H226.752V367.176Z" stroke="black" stroke-miterlimit="10"/>
<path d="M239.738 367.176H232.52V381.141H239.738V367.176Z" stroke="black" stroke-miterlimit="10"/>
<path d="M252.724 367.176H245.506V381.141H252.724V367.176Z" stroke="black" stroke-miterlimit="10"/>
<path d="M265.713 367.176H258.494V381.141H265.713V367.176Z" stroke="black" stroke-miterlimit="10"/>
<path d="M213.765 390.777H206.547V404.742H213.765V390.777Z" stroke="black" stroke-miterlimit="10"/>
<path d="M226.752 390.777H219.533V404.742H226.752V390.777Z" stroke="black" stroke-miterlimit="10"/>
<path d="M239.738 390.777H232.52V404.742H239.738V390.777Z" stroke="black" stroke-miterlimit="10"/>
<path d="M252.724 390.777H245.506V404.742H252.724V390.777Z" stroke="black" stroke-miterlimit="10"/>
<path d="M265.713 390.777H258.494V404.742H265.713V390.777Z" stroke="black" stroke-miterlimit="10"/>
<path d="M213.765 414.376H206.547V428.341H213.765V414.376Z" stroke="black" stroke-miterlimit="10"/>
<path d="M226.752 414.376H219.533V428.341H226.752V414.376Z" stroke="black" stroke-miterlimit="10"/>
<path d="M239.738 414.376H232.52V428.341H239.738V414.376Z" stroke="black" stroke-miterlimit="10"/>
<path d="M252.724 414.376H245.506V428.341H252.724V414.376Z" stroke="black" stroke-miterlimit="10"/>
<path d="M265.713 414.376H258.494V428.341H265.713V414.376Z" stroke="black" stroke-miterlimit="10"/>
<path d="M213.765 437.961H206.547V451.926H213.765V437.961Z" stroke="black" stroke-miterlimit="10"/>
<path d="M226.752 437.961H219.533V451.926H226.752V437.961Z" stroke="black" stroke-miterlimit="10"/>
<path d="M239.738 437.961H232.52V451.926H239.738V437.961Z" stroke="black" stroke-miterlimit="10"/>
<path d="M252.724 437.961H245.506V451.926H252.724V437.961Z" stroke="black" stroke-miterlimit="10"/>
<path d="M265.713 437.961H258.494V451.926H265.713V437.961Z" stroke="black" stroke-miterlimit="10"/>
<path d="M213.765 461.561H206.547V475.526H213.765V461.561Z" stroke="black" stroke-miterlimit="10"/>
<path d="M226.752 461.561H219.533V475.526H226.752V461.561Z" stroke="black" stroke-miterlimit="10"/>
<path d="M239.738 461.561H232.52V475.526H239.738V461.561Z" stroke="black" stroke-miterlimit="10"/>
<path d="M252.724 461.561H245.506V475.526H252.724V461.561Z" stroke="black" stroke-miterlimit="10"/>
<path d="M265.713 461.561H258.494V475.526H265.713V461.561Z" stroke="black" stroke-miterlimit="10"/>
<path d="M213.765 485.161H206.547V499.126H213.765V485.161Z" stroke="black" stroke-miterlimit="10"/>
<path d="M226.752 485.161H219.533V499.126H226.752V485.161Z" stroke="black" stroke-miterlimit="10"/>
<path d="M239.738 485.161H232.52V499.126H239.738V485.161Z" stroke="black" stroke-miterlimit="10"/>
<path d="M252.724 485.161H245.506V499.126H252.724V485.161Z" stroke="black" stroke-miterlimit="10"/>
<path d="M265.713 485.161H258.494V499.126H265.713V485.161Z" stroke="black" stroke-miterlimit="10"/>
<path d="M213.765 508.76H206.547V522.725H213.765V508.76Z" stroke="black" stroke-miterlimit="10"/>
<path d="M226.752 508.76H219.533V522.725H226.752V508.76Z" stroke="black" stroke-miterlimit="10"/>
<path d="M239.738 508.76H232.52V522.725H239.738V508.76Z" stroke="black" stroke-miterlimit="10"/>
<path d="M252.724 508.76H245.506V522.725H252.724V508.76Z" stroke="black" stroke-miterlimit="10"/>
<path d="M265.713 508.76H258.494V522.725H265.713V508.76Z" stroke="black" stroke-miterlimit="10"/>
<path d="M213.765 532.345H206.547V546.31H213.765V532.345Z" stroke="black" stroke-miterlimit="10"/>
<path d="M226.752 532.345H219.533V546.31H226.752V532.345Z" stroke="black" stroke-miterlimit="10"/>
<path d="M239.738 532.345H232.52V546.31H239.738V532.345Z" stroke="black" stroke-miterlimit="10"/>
<path d="M252.724 532.345H245.506V546.31H252.724V532.345Z" stroke="black" stroke-miterlimit="10"/>
<path d="M265.713 532.345H258.494V546.31H265.713V532.345Z" stroke="black" stroke-miterlimit="10"/>
<path d="M213.765 556.616H206.547V570.581H213.765V556.616Z" stroke="black" stroke-miterlimit="10"/>
<path d="M226.752 556.616H219.533V570.581H226.752V556.616Z" stroke="black" stroke-miterlimit="10"/>
<path d="M239.738 556.616H232.52V570.581H239.738V556.616Z" stroke="black" stroke-miterlimit="10"/>
<path d="M252.724 556.616H245.506V570.581H252.724V556.616Z" stroke="black" stroke-miterlimit="10"/>
<path d="M265.713 556.616H258.494V570.581H265.713V556.616Z" stroke="black" stroke-miterlimit="10"/>
<path d="M201.111 309.687V594.164" stroke="black" stroke-miterlimit="10"/>
<path d="M311.445 322.981V590.17" stroke="black" stroke-miterlimit="10"/>
<path d="M325.562 322.981V590.17" stroke="black" stroke-miterlimit="10"/>
<path d="M339.682 322.981V590.17" stroke="black" stroke-miterlimit="10"/>
<path d="M353.799 322.981V590.17" stroke="black" stroke-miterlimit="10"/>
<path d="M367.918 349.569V590.171" stroke="black" stroke-miterlimit="10"/>
<path d="M382.037 349.569V590.171" stroke="black" stroke-miterlimit="10"/>
<path d="M396.154 349.569V590.171" stroke="black" stroke-miterlimit="10"/>
<path d="M87.5605 259.179H107.033" stroke="black" stroke-miterlimit="10"/>
<path d="M87.5605 276.452H107.033" stroke="black" stroke-miterlimit="10"/>
<path d="M87.5605 293.74H107.033" stroke="black" stroke-miterlimit="10"/>
<path d="M87.5605 311.013H107.033" stroke="black" stroke-miterlimit="10"/>
<path d="M87.5605 328.3H107.033" stroke="black" stroke-miterlimit="10"/>
<path d="M87.5605 345.574H107.033" stroke="black" stroke-miterlimit="10"/>
<path d="M87.5605 362.864H107.033" stroke="black" stroke-miterlimit="10"/>
<path d="M87.5605 380.135H107.033" stroke="black" stroke-miterlimit="10"/>
<path d="M87.5605 397.424H107.033" stroke="black" stroke-miterlimit="10"/>
<path d="M87.5605 414.696H107.033" stroke="black" stroke-miterlimit="10"/>
<path d="M87.5605 431.986H107.033" stroke="black" stroke-miterlimit="10"/>
<path d="M87.5605 449.272H107.033" stroke="black" stroke-miterlimit="10"/>
<path d="M87.5605 466.546H107.033" stroke="black" stroke-miterlimit="10"/>
<path d="M87.5605 483.835H107.033" stroke="black" stroke-miterlimit="10"/>
<path d="M87.5605 501.107H107.033" stroke="black" stroke-miterlimit="10"/>
<path d="M87.5605 518.396H107.033" stroke="black" stroke-miterlimit="10"/>
<path d="M87.5605 535.667H107.033" stroke="black" stroke-miterlimit="10"/>
<path d="M87.5605 552.957H107.033" stroke="black" stroke-miterlimit="10"/>
<path d="M87.5605 570.229H107.033" stroke="black" stroke-miterlimit="10"/>
<path d="M87.5605 587.519H107.033" stroke="black" stroke-miterlimit="10"/>
<path d="M87.5605 604.79H107.033" stroke="black" stroke-miterlimit="10"/>
<path d="M604.614 367.512H519.889V375.485H604.614V367.512Z" stroke="black" stroke-miterlimit="10"/>
<path d="M604.614 353.579H519.889V361.552H604.614V353.579Z" stroke="black" stroke-miterlimit="10"/>
<path d="M604.614 339.646H519.889V347.62H604.614V339.646Z" stroke="black" stroke-miterlimit="10"/>
<path d="M604.614 325.714H519.889V333.687H604.614V325.714Z" stroke="black" stroke-miterlimit="10"/>
<path d="M604.614 311.779H519.889V319.752H604.614V311.779Z" stroke="black" stroke-miterlimit="10"/>
<path d="M604.614 297.831H519.889V305.804H604.614V297.831Z" stroke="black" stroke-miterlimit="10"/>
<path d="M604.614 283.897H519.889V291.87H604.614V283.897Z" stroke="black" stroke-miterlimit="10"/>
<path d="M604.614 269.964H519.889V277.937H604.614V269.964Z" stroke="black" stroke-miterlimit="10"/>
<path d="M604.614 381.478H519.889V389.451H604.614V381.478Z" stroke="black" stroke-miterlimit="10"/>
<path d="M604.614 395.427H519.889V403.4H604.614V395.427Z" stroke="black" stroke-miterlimit="10"/>
<path d="M604.614 409.391H519.889V417.364H604.614V409.391Z" stroke="black" stroke-miterlimit="10"/>
<path d="M604.614 423.341H519.889V431.314H604.614V423.341Z" stroke="black" stroke-miterlimit="10"/>
<path d="M604.614 437.306H519.889V445.279H604.614V437.306Z" stroke="black" stroke-miterlimit="10"/>
<path d="M604.614 451.255H519.889V459.228H604.614V451.255Z" stroke="black" stroke-miterlimit="10"/>
<path d="M604.614 465.219H519.889V473.192H604.614V465.219Z" stroke="black" stroke-miterlimit="10"/>
<path d="M604.614 479.169H519.889V487.142H604.614V479.169Z" stroke="black" stroke-miterlimit="10"/>
<path d="M604.614 493.133H519.889V501.106H604.614V493.133Z" stroke="black" stroke-miterlimit="10"/>
<path d="M604.614 507.098H519.889V515.071H604.614V507.098Z" stroke="black" stroke-miterlimit="10"/>
<path d="M604.614 521.048H519.889V529.022H604.614V521.048Z" stroke="black" stroke-miterlimit="10"/>
<path d="M604.614 535.012H519.889V542.985H604.614V535.012Z" stroke="black" stroke-miterlimit="10"/>
<path d="M604.614 548.962H519.889V556.935H604.614V548.962Z" stroke="black" stroke-miterlimit="10"/>
<path d="M604.614 562.927H519.889V570.9H604.614V562.927Z" stroke="black" stroke-miterlimit="10"/>
<path d="M604.614 576.875H519.889V584.849H604.614V576.875Z" stroke="black" stroke-miterlimit="10"/>
<path d="M604.614 590.841H519.889V598.814H604.614V590.841Z" stroke="black" stroke-miterlimit="10"/>
<path d="M483.574 523.046H441.219V544.984H483.574V523.046Z" stroke="black" stroke-miterlimit="10"/>
<path d="M473.502 484.488H451.305V523.044H473.502V484.488Z" stroke="black" stroke-miterlimit="10"/>
<path d="M272.898 403.209V593.638" stroke="black" stroke-miterlimit="10"/>
<path d="M516.207 382.34H413.348" stroke="black" stroke-miterlimit="10"/>
<path d="M516.207 393.701H413.348" stroke="black" stroke-miterlimit="10"/>
<path d="M433.633 402.217H417.938V413.578H433.633V402.217Z" stroke="black" stroke-miterlimit="10"/>
<path d="M452.979 402.217H437.283V413.578H452.979V402.217Z" stroke="black" stroke-miterlimit="10"/>
<path d="M472.338 402.217H456.643V413.578H472.338V402.217Z" stroke="black" stroke-miterlimit="10"/>
<path d="M491.684 402.217H475.988V413.578H491.684V402.217Z" stroke="black" stroke-miterlimit="10"/>
<path d="M511.045 402.217H495.35V413.578H511.045V402.217Z" stroke="black" stroke-miterlimit="10"/>
<path d="M433.633 419.825H417.938V431.186H433.633V419.825Z" stroke="black" stroke-miterlimit="10"/>
<path d="M452.979 419.825H437.283V431.186H452.979V419.825Z" stroke="black" stroke-miterlimit="10"/>
<path d="M472.338 419.825H456.643V431.186H472.338V419.825Z" stroke="black" stroke-miterlimit="10"/>
<path d="M491.684 419.825H475.988V431.186H491.684V419.825Z" stroke="black" stroke-miterlimit="10"/>
<path d="M511.045 419.825H495.35V431.186H511.045V419.825Z" stroke="black" stroke-miterlimit="10"/>
<path d="M433.633 437.434H417.938V448.795H433.633V437.434Z" stroke="black" stroke-miterlimit="10"/>
<path d="M452.979 437.434H437.283V448.795H452.979V437.434Z" stroke="black" stroke-miterlimit="10"/>
<path d="M472.338 437.434H456.643V448.795H472.338V437.434Z" stroke="black" stroke-miterlimit="10"/>
<path d="M491.684 437.434H475.988V448.795H491.684V437.434Z" stroke="black" stroke-miterlimit="10"/>
<path d="M511.045 437.434H495.35V448.795H511.045V437.434Z" stroke="black" stroke-miterlimit="10"/>
<path d="M433.633 469.246H417.938V480.606H433.633V469.246Z" stroke="black" stroke-miterlimit="10"/>
<path d="M452.979 469.246H437.283V480.606H452.979V469.246Z" stroke="black" stroke-miterlimit="10"/>
<path d="M472.338 469.246H456.643V480.606H472.338V469.246Z" stroke="black" stroke-miterlimit="10"/>
<path d="M491.684 469.246H475.988V480.606H491.684V469.246Z" stroke="black" stroke-miterlimit="10"/>
<path d="M511.045 469.246H495.35V480.606H511.045V469.246Z" stroke="black" stroke-miterlimit="10"/>
<path d="M1177.25 243.952V400.06H1156.52V593.989H1132.58V395.746H1087.93V187.197H1016.15V403.208H989.027V317.277H928.427V336.195H876.575V591.624H855.843V545.111H799.211V590.841H772.106V360.626H680.385V576.652H654.061" stroke="black" stroke-miterlimit="10"/>
<path d="M1191.08 243.953H1177.25V233.71H1192.47" stroke="black" stroke-miterlimit="10"/>
<path d="M1087.92 400.938H1132.85V395.746H1087.92V400.938Z" stroke="black" stroke-miterlimit="10"/>
<path d="M1016.15 192.246H1088.14V187.197H1016.15V192.246Z" stroke="black" stroke-miterlimit="10"/>
<path d="M972.835 317.261H983.32V306.556H972.835V317.261Z" stroke="black" stroke-miterlimit="10"/>
<path d="M945.587 317.261H950.83V311.046H945.587V317.261Z" stroke="black" stroke-miterlimit="10"/>
<path d="M876.399 342.475H928.41V336.195H876.399V342.475Z" stroke="black" stroke-miterlimit="10"/>
<path d="M680.4 360.626H772.105V355.944H680.4V360.626Z" stroke="black" stroke-miterlimit="10"/>
<path d="M712.206 355.96H748.537V346.629H712.206V355.96Z" stroke="black" stroke-miterlimit="10"/>
<path d="M719.888 346.964V338.335H693.324V355.608" stroke="black" stroke-miterlimit="10"/>
<path d="M894.899 333.622V263.829H810.843V321.654H781.937V223.276H689.133V342.25H664.227" stroke="black" stroke-miterlimit="10"/>
<path d="M621.266 465.602V307.992H664.226V458.635H674.807" stroke="black" stroke-miterlimit="10"/>
<path d="M955.42 299.061V221.95H1012.56" stroke="black" stroke-miterlimit="10"/>
<path d="M1172.6 264.484H1154.45V351.374H1135.61V301.65H1123.98V341.979H1115.48V283.722H1104.16V340.861H1092.25" stroke="black" stroke-miterlimit="10"/>
<path d="M1075.28 215.958H1082.5V201.993H1075.28V215.958Z" stroke="black" stroke-miterlimit="10"/>
<path d="M1062.3 215.958H1069.51V201.993H1062.3V215.958Z" stroke="black" stroke-miterlimit="10"/>
<path d="M1049.29 215.958H1056.51V201.993H1049.29V215.958Z" stroke="black" stroke-miterlimit="10"/>
<path d="M1036.3 215.958H1043.52V201.993H1036.3V215.958Z" stroke="black" stroke-miterlimit="10"/>
<path d="M1023.32 215.958H1030.54V201.993H1023.32V215.958Z" stroke="black" stroke-miterlimit="10"/>
<path d="M1075.28 239.574H1082.5V225.609H1075.28V239.574Z" stroke="black" stroke-miterlimit="10"/>
<path d="M1062.3 239.574H1069.51V225.609H1062.3V239.574Z" stroke="black" stroke-miterlimit="10"/>
<path d="M1049.29 239.574H1056.51V225.609H1049.29V239.574Z" stroke="black" stroke-miterlimit="10"/>
<path d="M1036.3 239.574H1043.52V225.609H1036.3V239.574Z" stroke="black" stroke-miterlimit="10"/>
<path d="M1023.32 239.574H1030.54V225.609H1023.32V239.574Z" stroke="black" stroke-miterlimit="10"/>
<path d="M1075.28 263.159H1082.5V249.194H1075.28V263.159Z" stroke="black" stroke-miterlimit="10"/>
<path d="M1062.3 263.159H1069.51V249.194H1062.3V263.159Z" stroke="black" stroke-miterlimit="10"/>
<path d="M1049.29 263.159H1056.51V249.194H1049.29V263.159Z" stroke="black" stroke-miterlimit="10"/>
<path d="M1036.3 263.159H1043.52V249.194H1036.3V263.159Z" stroke="black" stroke-miterlimit="10"/>
<path d="M1023.32 263.159H1030.54V249.194H1023.32V263.159Z" stroke="black" stroke-miterlimit="10"/>
<path d="M1075.28 286.757H1082.5V272.792H1075.28V286.757Z" stroke="black" stroke-miterlimit="10"/>
<path d="M1062.3 286.757H1069.51V272.792H1062.3V286.757Z" stroke="black" stroke-miterlimit="10"/>
<path d="M1049.29 286.757H1056.51V272.792H1049.29V286.757Z" stroke="black" stroke-miterlimit="10"/>
<path d="M1036.3 286.757H1043.52V272.792H1036.3V286.757Z" stroke="black" stroke-miterlimit="10"/>
<path d="M1023.32 286.757H1030.54V272.792H1023.32V286.757Z" stroke="black" stroke-miterlimit="10"/>
<path d="M1075.28 310.342H1082.5V296.377H1075.28V310.342Z" stroke="black" stroke-miterlimit="10"/>
<path d="M1062.3 310.342H1069.51V296.377H1062.3V310.342Z" stroke="black" stroke-miterlimit="10"/>
<path d="M1049.29 310.342H1056.51V296.377H1049.29V310.342Z" stroke="black" stroke-miterlimit="10"/>
<path d="M1036.3 310.342H1043.52V296.377H1036.3V310.342Z" stroke="black" stroke-miterlimit="10"/>
<path d="M1023.32 310.342H1030.54V296.377H1023.32V310.342Z" stroke="black" stroke-miterlimit="10"/>
<path d="M1075.28 333.958H1082.5V319.993H1075.28V333.958Z" stroke="black" stroke-miterlimit="10"/>
<path d="M1062.3 333.958H1069.51V319.993H1062.3V333.958Z" stroke="black" stroke-miterlimit="10"/>
<path d="M1049.29 333.958H1056.51V319.993H1049.29V333.958Z" stroke="black" stroke-miterlimit="10"/>
<path d="M1036.3 333.958H1043.52V319.993H1036.3V333.958Z" stroke="black" stroke-miterlimit="10"/>
<path d="M1023.32 333.958H1030.54V319.993H1023.32V333.958Z" stroke="black" stroke-miterlimit="10"/>
<path d="M1119.56 425.674H1126.78V411.709H1119.56V425.674Z" stroke="black" stroke-miterlimit="10"/>
<path d="M1106.58 425.674H1113.8V411.709H1106.58V425.674Z" stroke="black" stroke-miterlimit="10"/>
<path d="M1093.57 425.674H1100.79V411.709H1093.57V425.674Z" stroke="black" stroke-miterlimit="10"/>
<path d="M1119.56 448.602H1126.78V434.637H1119.56V448.602Z" stroke="black" stroke-miterlimit="10"/>
<path d="M1106.58 448.602H1113.8V434.637H1106.58V448.602Z" stroke="black" stroke-miterlimit="10"/>
<path d="M1093.57 448.602H1100.79V434.637H1093.57V448.602Z" stroke="black" stroke-miterlimit="10"/>
<path d="M1119.56 471.532H1126.78V457.567H1119.56V471.532Z" stroke="black" stroke-miterlimit="10"/>
<path d="M1106.58 471.532H1113.8V457.567H1106.58V471.532Z" stroke="black" stroke-miterlimit="10"/>
<path d="M1093.57 471.532H1100.79V457.567H1093.57V471.532Z" stroke="black" stroke-miterlimit="10"/>
<path d="M1119.56 494.46H1126.78V480.495H1119.56V494.46Z" stroke="black" stroke-miterlimit="10"/>
<path d="M1106.58 494.46H1113.8V480.495H1106.58V494.46Z" stroke="black" stroke-miterlimit="10"/>
<path d="M1093.57 494.46H1100.79V480.495H1093.57V494.46Z" stroke="black" stroke-miterlimit="10"/>
<path d="M1119.56 517.404H1126.78V503.439H1119.56V517.404Z" stroke="black" stroke-miterlimit="10"/>
<path d="M1106.58 517.404H1113.8V503.439H1106.58V517.404Z" stroke="black" stroke-miterlimit="10"/>
<path d="M1093.57 517.404H1100.79V503.439H1093.57V517.404Z" stroke="black" stroke-miterlimit="10"/>
<path d="M1119.56 540.333H1126.78V526.368H1119.56V540.333Z" stroke="black" stroke-miterlimit="10"/>
<path d="M1106.58 540.333H1113.8V526.368H1106.58V540.333Z" stroke="black" stroke-miterlimit="10"/>
<path d="M1093.57 540.333H1100.79V526.368H1093.57V540.333Z" stroke="black" stroke-miterlimit="10"/>
<path d="M1119.56 563.246H1126.78V549.281H1119.56V563.246Z" stroke="black" stroke-miterlimit="10"/>
<path d="M1106.58 563.246H1113.8V549.281H1106.58V563.246Z" stroke="black" stroke-miterlimit="10"/>
<path d="M1093.57 563.246H1100.79V549.281H1093.57V563.246Z" stroke="black" stroke-miterlimit="10"/>
<path d="M1075.28 357.542H1082.5V343.577H1075.28V357.542Z" stroke="black" stroke-miterlimit="10"/>
<path d="M1062.3 357.542H1069.51V343.577H1062.3V357.542Z" stroke="black" stroke-miterlimit="10"/>
<path d="M1049.29 357.542H1056.51V343.577H1049.29V357.542Z" stroke="black" stroke-miterlimit="10"/>
<path d="M1036.3 357.542H1043.52V343.577H1036.3V357.542Z" stroke="black" stroke-miterlimit="10"/>
<path d="M1023.32 357.542H1030.54V343.577H1023.32V357.542Z" stroke="black" stroke-miterlimit="10"/>
<path d="M1075.28 381.141H1082.5V367.176H1075.28V381.141Z" stroke="black" stroke-miterlimit="10"/>
<path d="M1062.3 381.141H1069.51V367.176H1062.3V381.141Z" stroke="black" stroke-miterlimit="10"/>
<path d="M1049.29 381.141H1056.51V367.176H1049.29V381.141Z" stroke="black" stroke-miterlimit="10"/>
<path d="M1036.3 381.141H1043.52V367.176H1036.3V381.141Z" stroke="black" stroke-miterlimit="10"/>
<path d="M1023.32 381.141H1030.54V367.176H1023.32V381.141Z" stroke="black" stroke-miterlimit="10"/>
<path d="M1075.28 404.726H1082.5V390.761H1075.28V404.726Z" stroke="black" stroke-miterlimit="10"/>
<path d="M1062.3 404.726H1069.51V390.761H1062.3V404.726Z" stroke="black" stroke-miterlimit="10"/>
<path d="M1049.29 404.726H1056.51V390.761H1049.29V404.726Z" stroke="black" stroke-miterlimit="10"/>
<path d="M1036.3 404.726H1043.52V390.761H1036.3V404.726Z" stroke="black" stroke-miterlimit="10"/>
<path d="M1023.32 404.726H1030.54V390.761H1023.32V404.726Z" stroke="black" stroke-miterlimit="10"/>
<path d="M1075.28 428.342H1082.5V414.377H1075.28V428.342Z" stroke="black" stroke-miterlimit="10"/>
<path d="M1062.3 428.342H1069.51V414.377H1062.3V428.342Z" stroke="black" stroke-miterlimit="10"/>
<path d="M1049.29 428.342H1056.51V414.377H1049.29V428.342Z" stroke="black" stroke-miterlimit="10"/>
<path d="M1036.3 428.342H1043.52V414.377H1036.3V428.342Z" stroke="black" stroke-miterlimit="10"/>
<path d="M1023.32 428.342H1030.54V414.377H1023.32V428.342Z" stroke="black" stroke-miterlimit="10"/>
<path d="M1075.28 451.924H1082.5V437.959H1075.28V451.924Z" stroke="black" stroke-miterlimit="10"/>
<path d="M1062.3 451.924H1069.51V437.959H1062.3V451.924Z" stroke="black" stroke-miterlimit="10"/>
<path d="M1049.29 451.924H1056.51V437.959H1049.29V451.924Z" stroke="black" stroke-miterlimit="10"/>
<path d="M1036.3 451.924H1043.52V437.959H1036.3V451.924Z" stroke="black" stroke-miterlimit="10"/>
<path d="M1023.32 451.924H1030.54V437.959H1023.32V451.924Z" stroke="black" stroke-miterlimit="10"/>
<path d="M1075.28 475.511H1082.5V461.546H1075.28V475.511Z" stroke="black" stroke-miterlimit="10"/>
<path d="M1062.3 475.511H1069.51V461.546H1062.3V475.511Z" stroke="black" stroke-miterlimit="10"/>
<path d="M1049.29 475.511H1056.51V461.546H1049.29V475.511Z" stroke="black" stroke-miterlimit="10"/>
<path d="M1036.3 475.511H1043.52V461.546H1036.3V475.511Z" stroke="black" stroke-miterlimit="10"/>
<path d="M1023.32 475.511H1030.54V461.546H1023.32V475.511Z" stroke="black" stroke-miterlimit="10"/>
<path d="M1075.28 499.125H1082.5V485.16H1075.28V499.125Z" stroke="black" stroke-miterlimit="10"/>
<path d="M1062.3 499.125H1069.51V485.16H1062.3V499.125Z" stroke="black" stroke-miterlimit="10"/>
<path d="M1049.29 499.125H1056.51V485.16H1049.29V499.125Z" stroke="black" stroke-miterlimit="10"/>
<path d="M1036.3 499.125H1043.52V485.16H1036.3V499.125Z" stroke="black" stroke-miterlimit="10"/>
<path d="M1023.32 499.125H1030.54V485.16H1023.32V499.125Z" stroke="black" stroke-miterlimit="10"/>
<path d="M1075.28 522.709H1082.5V508.744H1075.28V522.709Z" stroke="black" stroke-miterlimit="10"/>
<path d="M1062.3 522.709H1069.51V508.744H1062.3V522.709Z" stroke="black" stroke-miterlimit="10"/>
<path d="M1049.29 522.709H1056.51V508.744H1049.29V522.709Z" stroke="black" stroke-miterlimit="10"/>
<path d="M1036.3 522.709H1043.52V508.744H1036.3V522.709Z" stroke="black" stroke-miterlimit="10"/>
<path d="M1023.32 522.709H1030.54V508.744H1023.32V522.709Z" stroke="black" stroke-miterlimit="10"/>
<path d="M1075.28 546.31H1082.5V532.345H1075.28V546.31Z" stroke="black" stroke-miterlimit="10"/>
<path d="M1062.3 546.31H1069.51V532.345H1062.3V546.31Z" stroke="black" stroke-miterlimit="10"/>
<path d="M1049.29 546.31H1056.51V532.345H1049.29V546.31Z" stroke="black" stroke-miterlimit="10"/>
<path d="M1036.3 546.31H1043.52V532.345H1036.3V546.31Z" stroke="black" stroke-miterlimit="10"/>
<path d="M1023.32 546.31H1030.54V532.345H1023.32V546.31Z" stroke="black" stroke-miterlimit="10"/>
<path d="M1075.28 570.564H1082.5V556.599H1075.28V570.564Z" stroke="black" stroke-miterlimit="10"/>
<path d="M1062.3 570.564H1069.51V556.599H1062.3V570.564Z" stroke="black" stroke-miterlimit="10"/>
<path d="M1049.29 570.564H1056.51V556.599H1049.29V570.564Z" stroke="black" stroke-miterlimit="10"/>
<path d="M1036.3 570.564H1043.52V556.599H1036.3V570.564Z" stroke="black" stroke-miterlimit="10"/>
<path d="M1023.32 570.564H1030.54V556.599H1023.32V570.564Z" stroke="black" stroke-miterlimit="10"/>
<path d="M1087.93 309.687V594.164" stroke="black" stroke-miterlimit="10"/>
<path d="M977.602 322.981V590.17" stroke="black" stroke-miterlimit="10"/>
<path d="M963.482 322.981V590.17" stroke="black" stroke-miterlimit="10"/>
<path d="M949.363 322.981V590.17" stroke="black" stroke-miterlimit="10"/>
<path d="M935.246 322.981V590.17" stroke="black" stroke-miterlimit="10"/>
<path d="M921.127 349.569V590.171" stroke="black" stroke-miterlimit="10"/>
<path d="M906.994 349.569V590.171" stroke="black" stroke-miterlimit="10"/>
<path d="M892.875 349.569V590.171" stroke="black" stroke-miterlimit="10"/>
<path d="M684.431 375.485H707.553V367.512H684.431V375.485Z" stroke="black" stroke-miterlimit="10"/>
<path d="M684.431 389.45H707.553V381.477H684.431V389.45Z" stroke="black" stroke-miterlimit="10"/>
<path d="M684.431 403.398H707.553V395.425H684.431V403.398Z" stroke="black" stroke-miterlimit="10"/>
<path d="M684.431 417.364H707.553V409.391H684.431V417.364Z" stroke="black" stroke-miterlimit="10"/>
<path d="M684.431 431.314H707.553V423.341H684.431V431.314Z" stroke="black" stroke-miterlimit="10"/>
<path d="M684.431 445.278H707.553V437.305H684.431V445.278Z" stroke="black" stroke-miterlimit="10"/>
<path d="M684.431 459.228H707.553V451.254H684.431V459.228Z" stroke="black" stroke-miterlimit="10"/>
<path d="M684.431 473.193H707.553V465.22H684.431V473.193Z" stroke="black" stroke-miterlimit="10"/>
<path d="M684.431 487.158H707.553V479.185H684.431V487.158Z" stroke="black" stroke-miterlimit="10"/>
<path d="M684.431 501.107H707.553V493.134H684.431V501.107Z" stroke="black" stroke-miterlimit="10"/>
<path d="M684.431 515.072H707.553V507.099H684.431V515.072Z" stroke="black" stroke-miterlimit="10"/>
<path d="M684.431 529.021H707.553V521.048H684.431V529.021Z" stroke="black" stroke-miterlimit="10"/>
<path d="M684.431 542.985H707.553V535.012H684.431V542.985Z" stroke="black" stroke-miterlimit="10"/>
<path d="M684.431 556.936H707.553V548.963H684.431V556.936Z" stroke="black" stroke-miterlimit="10"/>
<path d="M684.431 570.899H707.553V562.926H684.431V570.899Z" stroke="black" stroke-miterlimit="10"/>
<path d="M684.431 584.849H707.553V576.876H684.431V584.849Z" stroke="black" stroke-miterlimit="10"/>
<path d="M684.431 598.831H707.553V590.857H684.431V598.831Z" stroke="black" stroke-miterlimit="10"/>
<path d="M715.185 375.485H738.307V367.512H715.185V375.485Z" stroke="black" stroke-miterlimit="10"/>
<path d="M715.185 389.45H738.307V381.477H715.185V389.45Z" stroke="black" stroke-miterlimit="10"/>
<path d="M715.185 403.398H738.307V395.425H715.185V403.398Z" stroke="black" stroke-miterlimit="10"/>
<path d="M715.185 417.364H738.307V409.391H715.185V417.364Z" stroke="black" stroke-miterlimit="10"/>
<path d="M715.185 431.314H738.307V423.341H715.185V431.314Z" stroke="black" stroke-miterlimit="10"/>
<path d="M715.185 445.278H738.307V437.305H715.185V445.278Z" stroke="black" stroke-miterlimit="10"/>
<path d="M715.185 459.228H738.307V451.254H715.185V459.228Z" stroke="black" stroke-miterlimit="10"/>
<path d="M715.185 473.193H738.307V465.22H715.185V473.193Z" stroke="black" stroke-miterlimit="10"/>
<path d="M715.185 487.158H738.307V479.185H715.185V487.158Z" stroke="black" stroke-miterlimit="10"/>
<path d="M715.185 501.107H738.307V493.134H715.185V501.107Z" stroke="black" stroke-miterlimit="10"/>
<path d="M715.185 515.072H738.307V507.099H715.185V515.072Z" stroke="black" stroke-miterlimit="10"/>
<path d="M715.185 529.021H738.307V521.048H715.185V529.021Z" stroke="black" stroke-miterlimit="10"/>
<path d="M715.185 542.985H738.307V535.012H715.185V542.985Z" stroke="black" stroke-miterlimit="10"/>
<path d="M715.185 556.936H738.307V548.963H715.185V556.936Z" stroke="black" stroke-miterlimit="10"/>
<path d="M715.185 570.899H738.307V562.926H715.185V570.899Z" stroke="black" stroke-miterlimit="10"/>
<path d="M715.185 584.849H738.307V576.876H715.185V584.849Z" stroke="black" stroke-miterlimit="10"/>
<path d="M715.185 598.831H738.307V590.857H715.185V598.831Z" stroke="black" stroke-miterlimit="10"/>
<path d="M745.941 375.485H769.062V367.512H745.941V375.485Z" stroke="black" stroke-miterlimit="10"/>
<path d="M745.941 389.45H769.062V381.477H745.941V389.45Z" stroke="black" stroke-miterlimit="10"/>
<path d="M745.941 403.398H769.062V395.425H745.941V403.398Z" stroke="black" stroke-miterlimit="10"/>
<path d="M745.941 417.364H769.062V409.391H745.941V417.364Z" stroke="black" stroke-miterlimit="10"/>
<path d="M745.941 431.314H769.062V423.341H745.941V431.314Z" stroke="black" stroke-miterlimit="10"/>
<path d="M745.941 445.278H769.062V437.305H745.941V445.278Z" stroke="black" stroke-miterlimit="10"/>
<path d="M745.941 459.228H769.062V451.254H745.941V459.228Z" stroke="black" stroke-miterlimit="10"/>
<path d="M745.941 473.193H769.062V465.22H745.941V473.193Z" stroke="black" stroke-miterlimit="10"/>
<path d="M745.941 487.158H769.062V479.185H745.941V487.158Z" stroke="black" stroke-miterlimit="10"/>
<path d="M745.941 501.107H769.062V493.134H745.941V501.107Z" stroke="black" stroke-miterlimit="10"/>
<path d="M745.941 515.072H769.062V507.099H745.941V515.072Z" stroke="black" stroke-miterlimit="10"/>
<path d="M745.941 529.021H769.062V521.048H745.941V529.021Z" stroke="black" stroke-miterlimit="10"/>
<path d="M745.941 542.985H769.062V535.012H745.941V542.985Z" stroke="black" stroke-miterlimit="10"/>
<path d="M745.941 556.936H769.062V548.963H745.941V556.936Z" stroke="black" stroke-miterlimit="10"/>
<path d="M745.941 570.899H769.062V562.926H745.941V570.899Z" stroke="black" stroke-miterlimit="10"/>
<path d="M745.941 584.849H769.062V576.876H745.941V584.849Z" stroke="black" stroke-miterlimit="10"/>
<path d="M745.941 598.831H769.062V590.857H745.941V598.831Z" stroke="black" stroke-miterlimit="10"/>
<path d="M805.473 544.967H847.828V523.029H805.473V544.967Z" stroke="black" stroke-miterlimit="10"/>
<path d="M815.559 523.046H837.74V484.49H815.559V523.046Z" stroke="black" stroke-miterlimit="10"/>
<path d="M1016.15 403.209V593.638" stroke="black" stroke-miterlimit="10"/>
<path d="M772.838 382.34H875.697" stroke="black" stroke-miterlimit="10"/>
<path d="M772.838 393.701H875.697" stroke="black" stroke-miterlimit="10"/>
<path d="M855.412 413.577H871.107V402.216H855.412V413.577Z" stroke="black" stroke-miterlimit="10"/>
<path d="M836.052 413.577H851.748V402.216H836.052V413.577Z" stroke="black" stroke-miterlimit="10"/>
<path d="M816.707 413.577H832.402V402.216H816.707V413.577Z" stroke="black" stroke-miterlimit="10"/>
<path d="M797.345 413.577H813.041V402.216H797.345V413.577Z" stroke="black" stroke-miterlimit="10"/>
<path d="M778.001 413.577H793.697V402.216H778.001V413.577Z" stroke="black" stroke-miterlimit="10"/>
<path d="M855.412 431.171H871.107V419.81H855.412V431.171Z" stroke="black" stroke-miterlimit="10"/>
<path d="M836.052 431.171H851.748V419.81H836.052V431.171Z" stroke="black" stroke-miterlimit="10"/>
<path d="M816.707 431.171H832.402V419.81H816.707V431.171Z" stroke="black" stroke-miterlimit="10"/>
<path d="M797.345 431.171H813.041V419.81H797.345V431.171Z" stroke="black" stroke-miterlimit="10"/>
<path d="M778.001 431.171H793.697V419.81H778.001V431.171Z" stroke="black" stroke-miterlimit="10"/>
<path d="M855.412 448.793H871.107V437.432H855.412V448.793Z" stroke="black" stroke-miterlimit="10"/>
<path d="M836.052 448.793H851.748V437.432H836.052V448.793Z" stroke="black" stroke-miterlimit="10"/>
<path d="M816.707 448.793H832.402V437.432H816.707V448.793Z" stroke="black" stroke-miterlimit="10"/>
<path d="M797.345 448.793H813.041V437.432H797.345V448.793Z" stroke="black" stroke-miterlimit="10"/>
<path d="M778.001 448.793H793.697V437.432H778.001V448.793Z" stroke="black" stroke-miterlimit="10"/>
<path d="M855.412 480.606H871.107V469.246H855.412V480.606Z" stroke="black" stroke-miterlimit="10"/>
<path d="M836.052 480.606H851.748V469.246H836.052V480.606Z" stroke="black" stroke-miterlimit="10"/>
<path d="M816.707 480.606H832.402V469.246H816.707V480.606Z" stroke="black" stroke-miterlimit="10"/>
<path d="M797.345 480.606H813.041V469.246H797.345V480.606Z" stroke="black" stroke-miterlimit="10"/>
<path d="M778.001 480.606H793.697V469.246H778.001V480.606Z" stroke="black" stroke-miterlimit="10"/>
<path d="M881.977 361.312H985.298" stroke="black" stroke-miterlimit="10"/>
<path d="M881.977 381.253H985.298" stroke="black" stroke-miterlimit="10"/>
<path d="M881.977 401.211H985.298" stroke="black" stroke-miterlimit="10"/>
<path d="M881.977 421.151H985.298" stroke="black" stroke-miterlimit="10"/>
<path d="M881.977 441.108H985.298" stroke="black" stroke-miterlimit="10"/>
<path d="M881.977 461.049H985.298" stroke="black" stroke-miterlimit="10"/>
<path d="M881.977 481.006H985.298" stroke="black" stroke-miterlimit="10"/>
<path d="M881.977 500.947H985.298" stroke="black" stroke-miterlimit="10"/>
<path d="M881.977 520.903H985.298" stroke="black" stroke-miterlimit="10"/>
<path d="M881.977 540.846H985.298" stroke="black" stroke-miterlimit="10"/>
<path d="M881.977 560.802H985.298" stroke="black" stroke-miterlimit="10"/>
<path d="M881.977 580.758H985.298" stroke="black" stroke-miterlimit="10"/>
<path d="M934.354 342.314H985.297" stroke="black" stroke-miterlimit="10"/>
</g>
<path d="M731.71 442.033H89.791V712.897H731.71V442.033Z" fill="white" stroke="#263238" stroke-linecap="round" stroke-linejoin="round"/>
<path d="M729.83 449.191V712.881H1170.95V449.191L950.289 391.669L729.83 449.191Z" fill="#EBEBEB" stroke="#263238" stroke-linecap="round" stroke-linejoin="round"/>
<path d="M731.71 442.033H89.791V497.573H731.71V442.033Z" fill="#C7C7C7" stroke="#263238" stroke-linecap="round" stroke-linejoin="round"/>
<path d="M1170.95 497.574V449.191L950.289 391.669L729.83 449.191V497.574H1170.95Z" fill="#A1A1A1" stroke="#263238" stroke-linecap="round" stroke-linejoin="round"/>
<path d="M759.596 483.065V447.162L949.38 397.645L1148.95 449.654V483.065H1170.05V442.033L949.38 384.511L728.922 442.033V483.065H759.596Z" fill="#263238" stroke="#263238" stroke-linecap="round" stroke-linejoin="round"/>
<path d="M769.729 483.065V447.162L959.513 397.645L1159.08 449.654V483.065H1180.18V442.033L959.513 384.511L739.055 442.033V483.065H769.729Z" fill="#92E3A9" stroke="#263238" stroke-linecap="round" stroke-linejoin="round"/>
<path d="M739.47 442.033H78.748V483.065H739.47V442.033Z" fill="#92E3A9" stroke="#263238" stroke-linecap="round" stroke-linejoin="round"/>
<path d="M298.999 384.511L78.9551 442.033H739.47L959.514 384.511H298.999Z" fill="#92E3A9" stroke="#263238" stroke-linecap="round" stroke-linejoin="round"/>
<path d="M839.922 554.375H753.811V615.732H839.922V554.375Z" fill="#263238" stroke="#263238" stroke-linecap="round" stroke-linejoin="round"/>
<path d="M945.794 554.375H859.682V615.732H945.794V554.375Z" fill="#263238" stroke="#263238" stroke-linecap="round" stroke-linejoin="round"/>
<path d="M1050.66 554.375H964.549V615.732H1050.66V554.375Z" fill="#263238" stroke="#263238" stroke-linecap="round" stroke-linejoin="round"/>
<path d="M1156.53 554.375H1070.42V615.732H1156.53V554.375Z" fill="#263238" stroke="#263238" stroke-linecap="round" stroke-linejoin="round"/>
<path d="M691.458 554.375H587.627V712.88H691.458V554.375Z" fill="white" stroke="#263238" stroke-linecap="round" stroke-linejoin="round"/>
<path d="M691.458 554.375H594.479V712.88H691.458V554.375Z" fill="#263238" stroke="#263238" stroke-linecap="round" stroke-linejoin="round"/>
<path d="M396.839 554.375H293.008V712.88H396.839V554.375Z" fill="white" stroke="#263238" stroke-linecap="round" stroke-linejoin="round"/>
<path d="M396.854 554.375H299.875V712.88H396.854V554.375Z" fill="#263238" stroke="#263238" stroke-linecap="round" stroke-linejoin="round"/>
<path d="M249.538 554.375H145.707V712.88H249.538V554.375Z" fill="white" stroke="#263238" stroke-linecap="round" stroke-linejoin="round"/>
<path d="M249.538 554.375H152.559V712.88H249.538V554.375Z" fill="#C7C7C7" stroke="#263238" stroke-linecap="round" stroke-linejoin="round"/>
<path d="M152.988 562.364H248.597" stroke="#263238" stroke-linecap="round" stroke-linejoin="round"/>
<path d="M152.988 572.463H248.597" stroke="#263238" stroke-linecap="round" stroke-linejoin="round"/>
<path d="M152.988 582.546H248.597" stroke="#263238" stroke-linecap="round" stroke-linejoin="round"/>
<path d="M152.988 592.645H248.597" stroke="#263238" stroke-linecap="round" stroke-linejoin="round"/>
<path d="M152.988 602.743H248.597" stroke="#263238" stroke-linecap="round" stroke-linejoin="round"/>
<path d="M152.988 612.824H248.597" stroke="#263238" stroke-linecap="round" stroke-linejoin="round"/>
<path d="M152.988 622.923H248.597" stroke="#263238" stroke-linecap="round" stroke-linejoin="round"/>
<path d="M152.988 633.005H248.597" stroke="#263238" stroke-linecap="round" stroke-linejoin="round"/>
<path d="M152.988 643.103H248.597" stroke="#263238" stroke-linecap="round" stroke-linejoin="round"/>
<path d="M152.988 653.202H248.597" stroke="#263238" stroke-linecap="round" stroke-linejoin="round"/>
<path d="M152.988 663.283H248.597" stroke="#263238" stroke-linecap="round" stroke-linejoin="round"/>
<path d="M152.988 673.382H248.597" stroke="#263238" stroke-linecap="round" stroke-linejoin="round"/>
<path d="M152.988 683.464H248.597" stroke="#263238" stroke-linecap="round" stroke-linejoin="round"/>
<path d="M152.988 693.563H248.597" stroke="#263238" stroke-linecap="round" stroke-linejoin="round"/>
<path d="M152.988 703.662H248.597" stroke="#263238" stroke-linecap="round" stroke-linejoin="round"/>
<path d="M542.021 554.375H438.189V712.88H542.021V554.375Z" fill="white" stroke="#263238" stroke-linecap="round" stroke-linejoin="round"/>
<path d="M542.022 554.375H445.043V712.88H542.022V554.375Z" fill="#C7C7C7" stroke="#263238" stroke-linecap="round" stroke-linejoin="round"/>
<path d="M445.473 562.364H541.082" stroke="#263238" stroke-linecap="round" stroke-linejoin="round"/>
<path d="M445.473 572.463H541.082" stroke="#263238" stroke-linecap="round" stroke-linejoin="round"/>
<path d="M445.473 582.546H541.082" stroke="#263238" stroke-linecap="round" stroke-linejoin="round"/>
<path d="M445.473 592.645H541.082" stroke="#263238" stroke-linecap="round" stroke-linejoin="round"/>
<path d="M445.473 602.743H541.082" stroke="#263238" stroke-linecap="round" stroke-linejoin="round"/>
<path d="M445.473 612.824H541.082" stroke="#263238" stroke-linecap="round" stroke-linejoin="round"/>
<path d="M445.473 622.923H541.082" stroke="#263238" stroke-linecap="round" stroke-linejoin="round"/>
<path d="M445.473 633.005H541.082" stroke="#263238" stroke-linecap="round" stroke-linejoin="round"/>
<path d="M445.473 643.103H541.082" stroke="#263238" stroke-linecap="round" stroke-linejoin="round"/>
<path d="M445.473 653.202H541.082" stroke="#263238" stroke-linecap="round" stroke-linejoin="round"/>
<path d="M445.473 663.283H541.082" stroke="#263238" stroke-linecap="round" stroke-linejoin="round"/>
<path d="M445.473 673.382H541.082" stroke="#263238" stroke-linecap="round" stroke-linejoin="round"/>
<path d="M445.473 683.464H541.082" stroke="#263238" stroke-linecap="round" stroke-linejoin="round"/>
<path d="M445.473 693.563H541.082" stroke="#263238" stroke-linecap="round" stroke-linejoin="round"/>
<path d="M445.473 703.662H541.082" stroke="#263238" stroke-linecap="round" stroke-linejoin="round"/>
<path d="M950.322 664.451H899.521V707.561H950.322V664.451Z" fill="white" stroke="#263238" stroke-linecap="round" stroke-linejoin="round"/>
<path d="M969.873 664.451H919.072V707.561H969.873V664.451Z" fill="white" stroke="#263238" stroke-linecap="round" stroke-linejoin="round"/>
<path d="M952.169 621.103H901.369V664.212H952.169V621.103Z" fill="white" stroke="#263238" stroke-linecap="round" stroke-linejoin="round"/>
<path d="M971.706 621.103H920.906V664.212H971.706V621.103Z" fill="white" stroke="#263238" stroke-linecap="round" stroke-linejoin="round"/>
<path d="M952.712 621.103H939.916V646.109H952.712V621.103Z" fill="white" stroke="#263238" stroke-linecap="round" stroke-linejoin="round"/>
<path d="M889.593 621.103H838.793V664.212H889.593V621.103Z" fill="white" stroke="#263238" stroke-linecap="round" stroke-linejoin="round"/>
<path d="M909.13 621.103H858.33V664.212H909.13V621.103Z" fill="white" stroke="#263238" stroke-linecap="round" stroke-linejoin="round"/>
<path d="M890.136 621.103H877.34V646.109H890.136V621.103Z" fill="white" stroke="#263238" stroke-linecap="round" stroke-linejoin="round"/>
<path d="M898.932 707.434H895.824V712.899H898.932V707.434Z" fill="white" stroke="#263238" stroke-linecap="round" stroke-linejoin="round"/>
<path d="M942.496 707.434H939.389V712.899H942.496V707.434Z" fill="white" stroke="#263238" stroke-linecap="round" stroke-linejoin="round"/>
<path d="M948.314 707.434H890.869V711.077H948.314V707.434Z" fill="white" stroke="#263238" stroke-linecap="round" stroke-linejoin="round"/>
<path d="M986.59 707.434H929.145V711.077H986.59V707.434Z" fill="white" stroke="#263238" stroke-linecap="round" stroke-linejoin="round"/>
<path d="M937.812 707.434H934.705V712.899H937.812V707.434Z" fill="white" stroke="#263238" stroke-linecap="round" stroke-linejoin="round"/>
<path d="M981.379 707.434H978.271V712.899H981.379V707.434Z" fill="white" stroke="#263238" stroke-linecap="round" stroke-linejoin="round"/>
<path d="M888.207 664.451H837.406V707.561H888.207V664.451Z" fill="white" stroke="#263238" stroke-linecap="round" stroke-linejoin="round"/>
<path d="M907.744 664.451H856.943V707.561H907.744V664.451Z" fill="white" stroke="#263238" stroke-linecap="round" stroke-linejoin="round"/>
<path d="M836.801 707.434H833.693V712.899H836.801V707.434Z" fill="white" stroke="#263238" stroke-linecap="round" stroke-linejoin="round"/>
<path d="M880.367 707.434H877.26V712.899H880.367V707.434Z" fill="white" stroke="#263238" stroke-linecap="round" stroke-linejoin="round"/>
<path d="M886.183 707.434H828.738V711.077H886.183V707.434Z" fill="white" stroke="#263238" stroke-linecap="round" stroke-linejoin="round"/>
<path d="M924.459 707.434H867.014V711.077H924.459V707.434Z" fill="white" stroke="#263238" stroke-linecap="round" stroke-linejoin="round"/>
<path d="M875.682 707.434H872.574V712.899H875.682V707.434Z" fill="white" stroke="#263238" stroke-linecap="round" stroke-linejoin="round"/>
<path d="M919.248 707.434H916.141V712.899H919.248V707.434Z" fill="white" stroke="#263238" stroke-linecap="round" stroke-linejoin="round"/>
<path d="M1044.22 637.927H1038.7V706.794H1044.22V637.927Z" fill="#263238" stroke="#263238" stroke-linecap="round" stroke-linejoin="round"/>
<path d="M1052.54 637.736H1039.96V639.589H1052.54V637.736Z" fill="#263238" stroke="#263238" stroke-linecap="round" stroke-linejoin="round"/>
<path d="M1051.4 639.573H1050.52V652.691H1051.4V639.573Z" fill="#263238" stroke="#263238" stroke-linecap="round" stroke-linejoin="round"/>
<path d="M1051.28 650.454H1040.62V652.308H1051.28V650.454Z" fill="#263238" stroke="#263238" stroke-linecap="round" stroke-linejoin="round"/>
<path d="M1054.22 683.37L1051.89 689.154L1064.65 704.573H1073.4L1068.19 686.917L1057.19 683.178L1054.22 683.37Z" fill="#A6A6A6" stroke="#263238" stroke-linecap="round" stroke-linejoin="round"/>
<path d="M1108.81 654.418H1104.98V668.99H1108.81V654.418Z" fill="#263238" stroke="#263238" stroke-linecap="round" stroke-linejoin="round"/>
<path d="M1106.08 654.145C1106.08 654.145 1106.34 651.253 1108.33 650.55C1110.58 649.89 1112.86 649.356 1115.17 648.952L1113.19 651.045L1109.18 651.892C1109.18 651.892 1108.17 652.228 1107.9 652.867C1107.72 653.33 1107.59 653.813 1107.52 654.305L1106.08 654.145Z" fill="#263238" stroke="#263238" stroke-linecap="round" stroke-linejoin="round"/>
<path d="M1105.97 669.213V670.938H1107.31V669.117L1105.97 669.213Z" fill="#263238" stroke="#263238" stroke-linecap="round" stroke-linejoin="round"/>
<path d="M1104.06 671.035H1128.18C1129.08 671.088 1129.94 671.411 1130.66 671.961C1131.37 672.51 1131.9 673.262 1132.18 674.118C1132.93 677.011 1133.95 689.442 1133.95 689.442L1134.32 704.653H1103.31V686.917H1105.78L1104.06 671.035Z" fill="#92E3A9" stroke="#263238" stroke-linecap="round" stroke-linejoin="round"/>
<path d="M1103.31 704.669H1134.32L1133.99 690.784H1103.31V704.669Z" fill="#263238" stroke="#263238" stroke-linecap="round" stroke-linejoin="round"/>
<path d="M1129.01 692.813C1128.38 691.688 1127.52 690.703 1126.5 689.918C1125.48 689.133 1124.3 688.563 1123.05 688.244H1113.75C1108.19 689.154 1105.03 694.955 1103.36 699.716V704.669H1131.28C1131.28 703.247 1131.44 696.472 1129.01 692.813Z" fill="#A6A6A6" stroke="#263238" stroke-linecap="round" stroke-linejoin="round"/>
<path d="M1065.94 687.141L1056.38 683.13H1046.23L1046.34 684.105H1056.49L1066.33 688.227L1071.82 705.979H1104.22C1104.22 705.979 1104.33 692.653 1113.62 688.227V685.303H1066.61L1065.94 687.141Z" fill="#92E3A9" stroke="#263238" stroke-linecap="round" stroke-linejoin="round"/>
<path d="M1049.67 675.952L1048.93 677.961L1056.39 680.723L1057.13 678.715L1049.67 675.952Z" fill="#263238" stroke="#263238" stroke-linecap="round" stroke-linejoin="round"/>
<path d="M1049.37 676.372L1048.99 677.378L1042.87 674.87L1043.25 673.863L1049.37 676.372Z" fill="white" stroke="#263238" stroke-linecap="round" stroke-linejoin="round"/>
<path d="M1106.67 684.967L1101.89 641.985H1103.07L1102.75 640.148H1064.02L1064.78 641.746H1068.45C1068.45 641.746 1064.24 644.558 1063.04 648.137C1061.85 651.716 1053.48 683.289 1053.48 683.289H1056.51L1066.23 647.881C1066.23 647.881 1068.83 644.095 1071.74 643.232C1074.66 642.369 1098.63 642.896 1098.63 642.896L1103.6 685.239L1106.67 684.967Z" fill="#263238" stroke="#263238" stroke-linecap="round" stroke-linejoin="round"/>
<path d="M1059.92 670.251C1059.92 670.251 1065.32 663.317 1066.5 662.773C1066.92 662.526 1067.39 662.379 1067.88 662.343C1068.37 662.307 1068.85 662.383 1069.31 662.566C1070.61 662.885 1070.72 663.86 1069.96 665.154C1069.19 666.448 1064.67 674.358 1064.67 676.531C1064.67 678.704 1065.32 679.231 1066.18 680.973C1067.04 682.714 1065.96 687.14 1065.96 687.14L1056.4 683.242L1059.92 670.251Z" fill="#263238" stroke="#263238" stroke-linecap="round" stroke-linejoin="round"/>
<path d="M1067 658.667L1074.6 663.156" stroke="#263238" stroke-linecap="round" stroke-linejoin="round"/>
<path d="M1068.76 660.075L1068.88 662.248L1069.96 662.791L1070.72 661.273" fill="white"/>
<path d="M1068.76 660.075L1068.88 662.248L1069.96 662.791L1070.72 661.273" stroke="#263238" stroke-linecap="round" stroke-linejoin="round"/>
<path d="M1069.96 662.791L1070.66 663.382L1072.88 662.344" fill="white"/>
<path d="M1069.96 662.791L1070.66 663.382L1072.88 662.344" stroke="#263238" stroke-linecap="round" stroke-linejoin="round"/>
<path d="M1074.07 662.293L1074.6 661.432" stroke="#263238" stroke-linecap="round" stroke-linejoin="round"/>
<path d="M1101.67 670.795C1101.67 670.795 1080.95 673.144 1080 674.182C1078.48 676.344 1077.52 678.856 1077.23 681.484V683.913H1066.74L1066.61 685.303L1103.55 685.191L1101.67 670.795Z" fill="#263238" stroke="#263238" stroke-linecap="round" stroke-linejoin="round"/>
<path d="M1096.04 667.056L1097.72 658.38C1097.72 658.38 1096.44 658.62 1094.53 659.083C1093.51 659.324 1092.57 659.851 1091.83 660.603C1091.09 661.355 1090.58 662.302 1090.36 663.333C1089.67 665.778 1091.95 668.446 1091.95 668.446C1091.95 668.446 1091.71 669.501 1091.47 669.661C1091.23 669.82 1079.01 671.258 1079.01 671.258V673.879L1095.71 671.21C1095.71 671.21 1096.7 667.887 1096.75 667.535C1096.79 667.184 1096.04 667.056 1096.04 667.056ZM1094.24 666.353C1093.73 666.241 1093.25 665.995 1092.86 665.638C1092.47 665.282 1092.19 664.828 1092.03 664.324C1091.69 662.726 1094.29 660.425 1095.74 660.313L1094.24 666.353Z" fill="#263238" stroke="#263238" stroke-linecap="round" stroke-linejoin="round"/>
<path d="M1128.84 702.049C1128.84 699.902 1128.21 697.803 1127.02 696.017C1125.84 694.231 1124.15 692.838 1122.17 692.014C1120.19 691.19 1118.02 690.973 1115.92 691.39C1113.82 691.807 1111.89 692.839 1110.37 694.356C1108.86 695.872 1107.83 697.805 1107.41 699.91C1106.99 702.015 1107.2 704.198 1108.02 706.181C1108.84 708.164 1110.23 709.86 1112.01 711.053C1113.79 712.245 1115.88 712.882 1118.02 712.882C1119.44 712.884 1120.85 712.606 1122.16 712.062C1123.47 711.519 1124.66 710.721 1125.67 709.715C1126.67 708.709 1127.47 707.514 1128.01 706.198C1128.56 704.883 1128.84 703.473 1128.84 702.049Z" fill="#263238" stroke="#263238" stroke-linecap="round" stroke-linejoin="round"/>
<path d="M1118.02 707.608C1121.08 707.608 1123.56 705.119 1123.56 702.048C1123.56 698.977 1121.08 696.487 1118.02 696.487C1114.96 696.487 1112.47 698.977 1112.47 702.048C1112.47 705.119 1114.96 707.608 1118.02 707.608Z" fill="white" stroke="#263238" stroke-linecap="round" stroke-linejoin="round"/>
<path d="M1062.14 709.077C1067.22 703.985 1067.22 695.73 1062.14 690.638C1057.06 685.546 1048.83 685.546 1043.75 690.638C1038.68 695.73 1038.68 703.985 1043.75 709.077C1048.83 714.169 1057.06 714.169 1062.14 709.077Z" fill="#263238" stroke="#263238" stroke-linecap="round" stroke-linejoin="round"/>
<path d="M1059.57 699.843C1059.57 698.519 1059.18 697.224 1058.45 696.123C1057.71 695.022 1056.67 694.164 1055.45 693.658C1054.23 693.151 1052.89 693.018 1051.59 693.277C1050.3 693.535 1049.11 694.173 1048.17 695.109C1047.24 696.045 1046.6 697.238 1046.35 698.537C1046.09 699.835 1046.22 701.182 1046.73 702.405C1047.23 703.628 1048.09 704.674 1049.18 705.409C1050.28 706.145 1051.57 706.538 1052.89 706.538C1054.66 706.538 1056.36 705.832 1057.61 704.577C1058.87 703.321 1059.57 701.618 1059.57 699.843Z" fill="white" stroke="#263238" stroke-linecap="round" stroke-linejoin="round"/>
<path d="M1047.89 639.078V643.504C1047.89 644.064 1047.77 644.617 1047.53 645.122C1047.29 645.628 1046.94 646.074 1046.5 646.428C1045.84 646.954 1045.01 647.24 1044.16 647.242H1039.96V638.486L1047.89 639.078Z" fill="#263238" stroke="#263238" stroke-linecap="round" stroke-linejoin="round"/>
<path d="M1035.49 665.905H1032.88V702.528H1035.49V665.905Z" fill="#263238" stroke="#263238" stroke-linecap="round" stroke-linejoin="round"/>
<path d="M1038.2 685.223H1035.68V701.537H1038.2V685.223Z" fill="#263238" stroke="#263238" stroke-linecap="round" stroke-linejoin="round"/>
<path d="M1003.24 701.266H1032.88V702.528H1011.46L1003.24 701.266Z" fill="#263238" stroke="#263238" stroke-linecap="round" stroke-linejoin="round"/>
<path d="M37.9707 712.881H1211.08" stroke="#263238" stroke-linecap="round" stroke-linejoin="round"/>
<path d="M141.391 696.38C141.391 696.38 148.711 696.03 152.391 699.69" stroke="#263238" stroke-width="6" stroke-linecap="round" stroke-linejoin="round"/>
<path d="M214.441 829.38C214.415 826.611 214.751 823.851 215.441 821.17V811.84H223.351C228.291 811.84 232.291 819.69 232.291 829.38C232.291 839.07 228.291 846.91 223.351 846.91H215.441V837.58C214.752 834.902 214.416 832.145 214.441 829.38Z" fill="#263238" stroke="#263238" stroke-miterlimit="10"/>
<path d="M215.481 846.911C220.424 846.911 224.431 839.062 224.431 829.381C224.431 819.699 220.424 811.851 215.481 811.851C210.538 811.851 206.531 819.699 206.531 829.381C206.531 839.062 210.538 846.911 215.481 846.911Z" fill="#263238" stroke="#263238" stroke-miterlimit="10"/>
<path d="M214.75 841.551C217.826 841.551 220.32 836.142 220.32 829.471C220.32 822.799 217.826 817.391 214.75 817.391C211.673 817.391 209.18 822.799 209.18 829.471C209.18 836.142 211.673 841.551 214.75 841.551Z" fill="#828282" stroke="#263238" stroke-miterlimit="10"/>
<path d="M152.361 699.69C153.029 700.371 153.551 701.18 153.895 702.069C154.239 702.958 154.398 703.908 154.361 704.86V831.07C154.375 832.653 155.012 834.166 156.136 835.281C157.26 836.395 158.779 837.02 160.361 837.02H240.361" stroke="#263238" stroke-width="4" stroke-linecap="round" stroke-linejoin="round"/>
<path d="M203.221 696.38C203.221 696.38 210.531 696.03 214.221 699.69" stroke="#263238" stroke-width="6" stroke-linecap="round" stroke-linejoin="round"/>
<path d="M214.191 699.69C214.859 700.371 215.381 701.18 215.725 702.069C216.069 702.958 216.228 703.908 216.191 704.86V836.51" stroke="#263238" stroke-width="4" stroke-linecap="round" stroke-linejoin="round"/>
<path d="M155.102 729.851H216.752" stroke="#263238" stroke-width="4" stroke-linecap="round" stroke-linejoin="round"/>
<path d="M186.82 729.59V836.26" stroke="#263238" stroke-width="4" stroke-linecap="round" stroke-linejoin="round"/>
<path d="M145.42 821.15L154.53 803.29" stroke="#263238" stroke-width="4" stroke-linecap="round" stroke-linejoin="round"/>
<path d="M154.351 829.351H145.781" stroke="#263238" stroke-width="4" stroke-linecap="round" stroke-linejoin="round"/>
<path d="M130.761 829.38C130.736 826.611 131.072 823.851 131.761 821.17V811.84H139.761C144.701 811.84 148.701 819.69 148.701 829.38C148.701 839.07 144.701 846.91 139.761 846.91H131.841V837.58C131.125 834.905 130.762 832.149 130.761 829.38Z" fill="#263238" stroke="#263238" stroke-miterlimit="10"/>
<path d="M131.841 846.911C136.784 846.911 140.791 839.062 140.791 829.381C140.791 819.699 136.784 811.851 131.841 811.851C126.898 811.851 122.891 819.699 122.891 829.381C122.891 839.062 126.898 846.911 131.841 846.911Z" fill="#263238" stroke="#263238" stroke-miterlimit="10"/>
<path d="M125.541 829.48C125.541 836.15 128.031 841.55 131.111 841.55C134.191 841.55 136.681 836.15 136.681 829.48C136.681 822.81 134.191 817.4 131.111 817.4C128.031 817.4 125.541 822.8 125.541 829.48Z" fill="white" stroke="#263238" stroke-miterlimit="10"/>
<path d="M533.3 817.51L594.03 819.69L677.57 818.88L709.64 817.31C709.64 817.31 716.21 799.69 713.64 790.24C711.07 780.79 707.83 776.78 700.55 776.78C693.27 776.78 680.84 782.71 680.33 787.02C679.82 791.33 676.2 796.24 676.2 796.24H589.67C589.67 796.24 586.39 777.51 574.76 770.97C563.13 764.43 547.85 764.78 539.85 770.97C531.85 777.16 533.3 817.51 533.3 817.51Z" fill="#263238" stroke="#263238" stroke-miterlimit="10"/>
<path d="M695.63 816.971C695.654 812.247 695.058 807.54 693.86 802.971V787.021H680.35C671.91 787.021 665.07 800.431 665.07 817.021C665.07 833.611 671.91 846.961 680.35 846.961H693.86V830.981C695.06 826.408 695.655 821.698 695.63 816.971Z" fill="#263238" stroke="#263238" stroke-miterlimit="10"/>
<path d="M693.86 846.911C702.299 846.911 709.14 833.502 709.14 816.961C709.14 800.42 702.299 787.011 693.86 787.011C685.421 787.011 678.58 800.42 678.58 816.961C678.58 833.502 685.421 846.911 693.86 846.911Z" fill="#616161" stroke="#263238" stroke-miterlimit="10"/>
<path d="M695.1 837.76C700.358 837.76 704.62 828.524 704.62 817.13C704.62 805.736 700.358 796.5 695.1 796.5C689.842 796.5 685.58 805.736 685.58 817.13C685.58 828.524 689.842 837.76 695.1 837.76Z" fill="#E0E0E0" stroke="#263238" stroke-miterlimit="10"/>
<path d="M574.761 787.021H561.261C552.821 787.021 545.971 800.431 545.971 817.021C545.971 833.611 552.821 846.961 561.261 846.961H574.761C583.201 846.961 590.041 833.551 590.041 817.021C590.041 800.491 583.151 787.021 574.761 787.021Z" fill="#263238" stroke="#263238" stroke-miterlimit="10"/>
<path d="M421.76 787.021H407.04C397.86 787.021 390.41 800.431 390.41 817.021C390.41 833.611 397.86 846.961 407.04 846.961H421.76C430.94 846.961 438.38 833.551 438.38 817.021C438.38 800.491 430.91 787.021 421.76 787.021Z" fill="#263238" stroke="#263238" stroke-miterlimit="10"/>
<path d="M564.42 812.111C564.451 806.614 563.759 801.137 562.36 795.821V777.301H546.66C536.86 777.301 528.9 792.881 528.9 812.111C528.9 831.341 536.9 846.911 546.66 846.911H562.36V828.391C563.758 823.078 564.451 817.604 564.42 812.111Z" fill="#263238" stroke="#263238" stroke-miterlimit="10"/>
<path d="M562.36 846.91C572.168 846.91 580.12 831.325 580.12 812.1C580.12 792.875 572.168 777.29 562.36 777.29C552.551 777.29 544.6 792.875 544.6 812.1C544.6 831.325 552.551 846.91 562.36 846.91Z" fill="#616161" stroke="#263238" stroke-miterlimit="10"/>
<path d="M563.8 836.28C569.909 836.28 574.86 825.544 574.86 812.3C574.86 799.057 569.909 788.32 563.8 788.32C557.692 788.32 552.74 799.057 552.74 812.3C552.74 825.544 557.692 836.28 563.8 836.28Z" fill="#E0E0E0" stroke="#263238" stroke-miterlimit="10"/>
<path d="M711.679 766.04C708.849 757.19 649.059 633.71 644.459 628.75C639.859 623.79 554.229 597.25 554.229 597.25C554.229 597.25 514.959 585.58 502.229 584.87C489.499 584.16 380.159 593.36 378.039 594.07C375.919 594.78 361.759 638.66 357.859 657.77C353.959 676.88 352.199 715.77 352.199 754.01C352.199 792.25 357.509 820.17 363.519 820.17C369.529 820.17 526.629 824.77 529.109 824.77C531.589 824.77 535.109 821.94 541.489 813.45C547.869 804.96 553.169 779.45 560.249 776.3C567.329 773.15 575.109 774.88 578.999 783.73C582.889 792.58 581.829 820.17 581.829 820.17C581.829 820.17 639.399 819.85 677.569 818.88C678.979 815.06 682.809 804.88 687.569 793.21C693.629 778.43 703.859 779.95 708.409 783.74C712.499 787.15 711.979 805.65 709.619 817.31C709.974 817.288 710.317 817.178 710.619 816.99C712.389 814.51 714.159 807.79 715.569 798.94C716.979 790.09 714.509 774.88 711.679 766.04Z" fill="white" stroke="#263238" stroke-miterlimit="10"/>
<path d="M581.83 820.17C581.83 820.17 639.4 819.85 677.57 818.88C678.98 815.06 682.81 804.88 687.57 793.21C693.63 778.43 703.86 779.95 708.41 783.74C712.5 787.15 711.98 805.65 709.62 817.31C709.975 817.288 710.318 817.178 710.62 816.99C712.39 814.51 714.16 807.79 715.57 798.94C716.98 790.09 714.51 774.88 711.68 766.04C708.85 757.2 649.06 633.71 644.46 628.75C639.86 623.79 554.23 597.25 554.23 597.25C554.23 597.25 514.96 585.58 502.23 584.87H501.99L502.48 587.11C502.48 587.11 513.06 607.54 511.03 824.28C521.73 824.58 528.62 824.77 529.12 824.77C531.6 824.77 535.12 821.94 541.5 813.45C547.88 804.96 553.18 779.45 560.26 776.3C567.34 773.15 575.12 774.88 579.01 783.73C582.9 792.58 581.83 820.17 581.83 820.17Z" fill="#E0E0E0" stroke="#263238" stroke-miterlimit="10"/>
<path d="M710.461 787.841C712.211 794.841 711.461 808.171 709.641 817.311C709.995 817.288 710.339 817.179 710.641 816.991C712.411 814.511 714.181 807.791 715.591 798.941C716.521 793.131 715.771 784.581 714.341 776.881C714.141 780.711 713.241 785.121 710.461 787.841Z" fill="#263238" stroke="#263238" stroke-miterlimit="10"/>
<path d="M559.251 776.92H352.891C354.501 802.92 358.791 820.17 363.521 820.17C369.521 820.17 526.631 824.77 529.111 824.77C531.591 824.77 535.111 821.94 541.491 813.45C547.561 805.36 552.661 781.89 559.251 776.92Z" fill="#263238" stroke="#263238" stroke-miterlimit="10"/>
<path d="M424.6 591.65V592.15C424.6 592.554 424.683 592.953 424.845 593.322C425.008 593.691 425.245 594.022 425.542 594.295C425.839 594.568 426.19 594.776 426.571 594.906C426.953 595.036 427.358 595.085 427.76 595.05L447.93 593.37C448.657 593.31 449.336 592.979 449.83 592.441C450.325 591.904 450.6 591.201 450.6 590.47V589.97C450.598 589.568 450.513 589.169 450.351 588.801C450.188 588.432 449.951 588.102 449.654 587.829C449.357 587.557 449.007 587.349 448.626 587.218C448.245 587.088 447.841 587.037 447.44 587.07L427.28 588.75C426.551 588.811 425.871 589.142 425.375 589.679C424.879 590.216 424.602 590.919 424.6 591.65Z" stroke="#263238" stroke-miterlimit="10"/>
<path d="M502.471 587.11C502.471 587.11 507.101 683.97 507.101 697.11C507.101 710.25 508.471 807.61 508.471 807.61L560.311 808.16C563.06 787.441 564.516 766.571 564.671 745.67C564.671 713.75 559.761 637.36 557.031 614.98C554.301 592.6 550.761 575.65 550.761 575.65L502.471 587.11Z" fill="white" stroke="#263238" stroke-miterlimit="10"/>
<path d="M512.291 717.531L550.491 715.891C550.491 715.891 552.401 745.091 550.491 765.831C548.581 786.571 547.761 791.751 546.671 792.831C545.581 793.911 512.291 792.831 512.291 792.831C510.884 791.253 510.105 789.214 510.101 787.101C510.101 783.551 509.291 722.431 509.291 720.521C509.291 718.611 510.381 718.351 512.291 717.531Z" fill="#263238" stroke="#263238" stroke-miterlimit="10"/>
<path d="M507.381 604.031L508.471 616.311L546.391 610.581C545.95 607.63 545.028 604.772 543.661 602.121C541.211 596.931 537.931 595.301 537.931 595.301L510.101 601.571" stroke="#263238" stroke-miterlimit="10"/>
<path d="M542.849 580.841C542.849 580.841 549.119 597.481 554.029 642.501C558.939 687.521 560.849 779.191 557.029 797.751C556.95 798.784 556.639 799.786 556.119 800.683C555.6 801.579 554.886 802.348 554.029 802.931C551.029 805.111 512.029 804.301 512.029 804.301" stroke="#263238" stroke-miterlimit="10"/>
<path d="M544.481 621.76C544.481 621.76 546.121 616.85 549.671 652.59C553.221 688.33 553.491 701.71 551.851 702.8C550.211 703.89 515.291 705.8 515.291 705.8" stroke="#263238" stroke-miterlimit="10"/>
<path d="M533.841 621.49C533.841 621.49 512.011 623.95 510.381 625.86C508.751 627.77 512.291 643.32 513.111 668.69C513.931 694.06 513.921 700.07 513.921 700.07" stroke="#263238" stroke-miterlimit="10"/>
<path d="M543.94 628.86L516.65 633.25C515.874 633.498 515.22 634.028 514.816 634.736C514.412 635.443 514.289 636.276 514.47 637.07C515.02 640.07 518.56 678.82 517.74 698.74" stroke="#263238" stroke-miterlimit="10"/>
<path d="M340.961 666.811V763.421" stroke="#263238" stroke-miterlimit="10"/>
<path d="M345.16 655.791L345.37 643.411C345.37 643.411 336.7 599.041 336.08 598.211C335.46 597.381 264.67 596.771 263.85 597.211C263.03 597.651 263.64 601.961 263.64 601.961C263.64 601.961 264.47 616.201 265.09 661.811C265.71 707.421 264.88 800.701 264.88 800.701L343.88 801.321C343.88 801.321 343.06 795.131 344.3 774.701C345.54 754.271 345.74 660.571 345.74 659.701V657.021L345.16 655.791Z" fill="white" stroke="#263238" stroke-miterlimit="10"/>
<path d="M267.6 600.351C267.6 600.351 328.07 601.261 329.7 601.621C331.33 601.981 332.42 605.261 332.97 607.071C333.52 608.881 341.14 642.121 341.68 647.021" stroke="#263238" stroke-miterlimit="10"/>
<path d="M340.959 776.32C340.959 776.32 341.319 788.32 340.049 790.84C339.664 791.816 339.021 792.67 338.19 793.31C337.36 793.951 336.371 794.355 335.329 794.48C333.329 794.84 266.869 793.75 266.869 793.75" stroke="#263238" stroke-miterlimit="10"/>
<path d="M272.32 720.57L271.41 786.85L336.24 787.76C336.24 787.76 337.69 722.02 337.51 721.11C337.33 720.2 337.33 719.3 333.69 718.93C330.05 718.56 275.95 718.03 275.04 718.03C274.39 718.147 273.788 718.449 273.306 718.899C272.823 719.35 272.481 719.93 272.32 720.57Z" fill="#263238" stroke="#263238" stroke-miterlimit="10"/>
<path d="M277.76 613.61C277.76 613.61 271.76 621.96 271.23 623.96C270.7 625.96 271.23 627.41 272.68 627.59C274.13 627.77 328.97 627.59 328.97 627.59C328.97 627.59 330.97 627.23 330.79 624.14" stroke="#263238" stroke-miterlimit="10"/>
<path d="M281.4 613.061H326.4C326.4 613.061 327.85 613.061 328.76 616.881" stroke="#263238" stroke-miterlimit="10"/>
<path d="M285.39 640.12C285.39 640.12 281.03 641.57 280.85 645.57C280.67 649.57 281.76 703.68 281.76 703.68" stroke="#263238" stroke-miterlimit="10"/>
<path d="M292.289 639.94C292.289 639.94 326.429 640.85 328.609 641.21C330.789 641.57 332.789 643.94 333.329 645.75C333.869 647.56 333.879 700.96 333.879 700.96" stroke="#263238" stroke-miterlimit="10"/>
<path d="M287.569 635.95C287.569 635.95 280.309 635.76 277.039 637.76C273.769 639.76 274.309 645.03 274.499 647.02C274.689 649.01 275.219 702.77 275.219 702.77C275.219 702.77 275.219 704.95 278.129 705.13C281.039 705.31 329.519 705.31 329.519 705.31C330.124 705.29 330.717 705.133 331.252 704.85C331.787 704.568 332.251 704.168 332.609 703.68" stroke="#263238" stroke-miterlimit="10"/>
<path d="M294.65 635.25C294.65 635.25 328.25 636.16 331.33 637.61C334.41 639.06 333.88 641.79 334.06 643.06" stroke="#263238" stroke-miterlimit="10"/>
<path d="M359.201 656.41H343.311V661.98H359.201V656.41Z" stroke="#263238" stroke-miterlimit="10"/>
<path d="M353.421 654.761H348.051V664.051H353.421V654.761Z" stroke="#263238" stroke-miterlimit="10"/>
<path d="M357.749 767.24H341.859V772.81H357.749V767.24Z" stroke="#263238" stroke-miterlimit="10"/>
<path d="M351.979 765.591H346.609V774.881H351.979V765.591Z" stroke="#263238" stroke-miterlimit="10"/>
<path d="M502.38 594.891L381.99 604.031C381.99 604.031 371.63 656.461 371.63 657.371C371.63 658.281 368.28 742.371 369.5 762.831C370.72 783.291 371.02 800.311 371.02 800.311L507.56 804.311L502.38 594.891Z" fill="white" stroke="#263238" stroke-miterlimit="10"/>
<path d="M502.38 594.891L381.99 604.031C381.99 604.031 371.63 656.461 371.63 657.371C371.63 658.281 368.28 742.371 369.5 762.831C370.72 783.291 371.02 800.311 371.02 800.311L507.56 804.311L502.38 594.891Z" fill="#263238" stroke="#263238" stroke-miterlimit="10"/>
<path d="M463.02 802.981V738.341H436.41V802.211L463.02 802.981Z" fill="#92E3A9" stroke="#263238" stroke-miterlimit="10"/>
<path d="M381.98 800.631L436.41 802.211V738.341H381.98V800.631Z" fill="#92E3A9" stroke="#263238" stroke-miterlimit="10"/>
<path d="M403.501 768.79H414.891V738.33H403.501V768.79Z" fill="white" stroke="#263238" stroke-miterlimit="10"/>
<path d="M492.09 803.821H507.55L507.33 794.801L505.93 738.341H440.57V802.331L492.09 803.821Z" fill="#92E3A9" stroke="#263238" stroke-miterlimit="10"/>
<path d="M492.09 803.821H495V738.341H440.57V802.331L492.09 803.821Z" fill="#92E3A9" stroke="#263238" stroke-miterlimit="10"/>
<path d="M464.99 755.341H446.73V767.651H464.99V755.341Z" fill="white" stroke="#263238" stroke-miterlimit="10"/>
<path d="M462.09 748.15H473.48V738.34H462.09V748.15Z" fill="white" stroke="#263238" stroke-miterlimit="10"/>
<path d="M587.57 791.69C587.57 791.69 587.95 803.44 588.32 806.47C588.69 809.5 591.32 811.01 594.77 810.26C598.22 809.51 670.92 811.39 670.92 811.39C671.99 811.075 672.933 810.429 673.613 809.545C674.294 808.662 674.678 807.585 674.71 806.47C675.09 802.3 676.22 796.24 676.22 796.24L587.57 791.69Z" fill="#263238" stroke="#263238" stroke-miterlimit="10"/>
<path d="M655.33 679.85C655.33 679.85 660.83 724.42 663.33 729.92C665.83 735.42 667.85 737.57 670.79 738.75C673.73 739.93 690.43 744.84 692.39 745.03C694.35 745.22 695.39 744.25 694.75 741.89C694.11 739.53 671.38 687.7 669.42 684.56C667.46 681.42 660.98 678.87 658.62 678.08C656.26 677.29 655.33 679.85 655.33 679.85Z" fill="#B2B2B2" stroke="#263238" stroke-miterlimit="10"/>
<path d="M666.76 682.301L677.05 739.511" stroke="#263238" stroke-miterlimit="10"/>
<path d="M691.07 720.49C691.07 720.49 691.66 741.49 692.07 743.27C692.48 745.05 694.07 745.82 696 745.62C697.93 745.42 704.44 744.62 705.22 742.68C706 740.74 704.83 725.79 702.47 722.26C700.11 718.73 695.41 717.55 693.47 717.35C691.53 717.15 691.07 720.49 691.07 720.49Z" fill="#B2B2B2" stroke="#263238" stroke-miterlimit="10"/>
<path d="M692.05 743.251C692.44 745.011 694.05 745.801 695.98 745.601C697.91 745.401 704.42 744.601 705.2 742.661C705.98 740.721 704.81 725.771 702.45 722.241C701.485 720.854 700.189 719.73 698.68 718.971L699.12 720.081L700.49 739.321H691.76C691.85 741.361 691.96 742.851 692.05 743.251Z" fill="#263238" stroke="#263238" stroke-miterlimit="10"/>
<path d="M568.561 747.051L699.731 762.181" stroke="#263238" stroke-miterlimit="10"/>
<path d="M569.82 751.78L684.91 764.07L694.05 763.44" stroke="#263238" stroke-miterlimit="10"/>
<path d="M683.96 772.25C683.96 772.25 679.55 789.59 677.66 793.69" stroke="#263238" stroke-miterlimit="10"/>
<path d="M570.449 760.25C570.449 760.25 579.909 765.25 584.959 783.58" stroke="#263238" stroke-miterlimit="10"/>
<path d="M565.721 656.24L649.591 675.47" stroke="#263238" stroke-miterlimit="10"/>
<path d="M566.98 650.881C566.98 650.881 654.32 670.751 661.58 674.531" stroke="#263238" stroke-miterlimit="10"/>
<path d="M663.851 754.901C663.332 754.734 662.876 754.415 662.543 753.985C662.209 753.555 662.013 753.034 661.981 752.491V739.441C661.968 739.212 662.014 738.984 662.113 738.778C662.213 738.572 662.363 738.395 662.55 738.263C662.737 738.131 662.954 738.048 663.182 738.024C663.409 737.999 663.64 738.032 663.851 738.121C664.368 738.287 664.822 738.607 665.154 739.037C665.486 739.467 665.68 739.988 665.711 740.531V753.581C665.723 753.808 665.677 754.035 665.578 754.239C665.479 754.444 665.329 754.621 665.144 754.752C664.958 754.884 664.742 754.967 664.516 754.993C664.29 755.019 664.061 754.987 663.851 754.901Z" fill="#263238" stroke="#263238" stroke-miterlimit="10"/>
<path d="M649.299 753.41C648.782 753.243 648.328 752.924 647.996 752.494C647.664 752.063 647.47 751.543 647.439 751V737.95C647.427 737.723 647.473 737.496 647.572 737.291C647.671 737.087 647.821 736.91 648.006 736.778C648.192 736.647 648.408 736.564 648.634 736.538C648.86 736.512 649.089 736.544 649.299 736.63C649.818 736.796 650.274 737.116 650.607 737.546C650.941 737.976 651.137 738.497 651.169 739.04V752.04C651.191 752.273 651.152 752.507 651.057 752.72C650.961 752.933 650.812 753.118 650.623 753.256C650.435 753.394 650.214 753.481 649.982 753.508C649.75 753.535 649.514 753.501 649.299 753.41Z" fill="#263238" stroke="#263238" stroke-miterlimit="10"/>
<path d="M395.219 738.78H465.529V687.77H395.219V738.78Z" fill="#92E3A9" stroke="#263238" stroke-miterlimit="10"/>
<path d="M395.219 738.78H437.619V687.77H395.219V738.78Z" fill="#92E3A9" stroke="#263238" stroke-miterlimit="10"/>
<path d="M411.989 711.5H420.859V687.78H411.989V711.5Z" fill="white" stroke="#263238" stroke-miterlimit="10"/>
<path d="M503.42 636.971H455.1V687.981H504.68L503.42 636.971Z" fill="#92E3A9" stroke="#263238" stroke-miterlimit="10"/>
<path d="M455.09 687.98H497.49V636.97H455.09V687.98Z" fill="#92E3A9" stroke="#263238" stroke-miterlimit="10"/>
<path d="M494.369 665.62H476.109V677.93H494.369V665.62Z" fill="white" stroke="#263238" stroke-miterlimit="10"/>
<path d="M471.86 660.69H480.73V636.97H471.86V660.69Z" fill="white" stroke="#263238" stroke-miterlimit="10"/>
<path d="M504.679 687.771H449.199V738.781H505.939L504.679 687.771Z" fill="#92E3A9" stroke="#263238" stroke-miterlimit="10"/>
<path d="M449.2 738.78H491.6V687.77H449.2V738.78Z" fill="#92E3A9" stroke="#263238" stroke-miterlimit="10"/>
<path d="M465.97 711.5H474.84V687.78H465.97V711.5Z" fill="white" stroke="#263238" stroke-miterlimit="10"/>
<path d="M385.74 681.069H450.9V633.789H385.74V681.069Z" fill="#92E3A9" stroke="#263238" stroke-miterlimit="10"/>
<path d="M385.739 681.069H425.029V633.789H385.739V681.069Z" fill="#92E3A9" stroke="#263238" stroke-miterlimit="10"/>
<path d="M401.28 655.779H409.5V633.789H401.28V655.779Z" fill="white" stroke="#263238" stroke-miterlimit="10"/>
<path d="M346.429 633.17C346.084 634.691 346.209 636.281 346.789 637.73C347.789 640.36 349.299 644.92 350.259 646.36C350.851 647.415 351.103 648.626 350.979 649.83L364.409 656.07C364.409 656.07 364.649 651.07 365.119 650.79C365.589 650.51 369.319 650.55 370.119 649.23C370.919 647.91 369.999 641.32 369.999 641.32C370.396 640.922 370.685 640.43 370.839 639.89C370.959 639.17 369.039 637.49 369.279 636.17C369.519 634.85 370.119 633.41 369.159 631.5C368.199 629.59 365.379 624.94 360.939 623.5C356.499 622.06 351.729 623.73 349.819 625.77C347.909 627.81 346.309 630.18 346.429 633.17Z" fill="white" stroke="#263238" stroke-miterlimit="10"/>
<path d="M366.34 634.56C366.9 633.65 367.242 632.624 367.34 631.56C367.34 630.56 365.96 630.4 363.7 631.29C361.88 632 350.96 635.84 346.82 637.73C347.76 640.615 348.882 643.438 350.18 646.18C350.43 646.508 350.722 646.801 351.05 647.05C352.15 647.67 355.17 646.44 356.27 644.79C357.18 643.43 357.57 639.42 357.68 638.04C357.68 637.75 357.68 637.58 357.68 637.58C358.1 636.48 359.74 636.41 360.91 637.03C361.357 637.297 361.853 637.472 362.368 637.542C362.884 637.613 363.409 637.578 363.91 637.44C364.219 637.311 364.48 637.09 364.659 636.808C364.838 636.525 364.926 636.194 364.91 635.86C364.89 635.38 365.99 635.04 366.34 634.56Z" fill="#263238" stroke="#263238" stroke-miterlimit="10"/>
<path d="M362.009 638.129C362.009 638.129 360.359 635.719 358.919 637.709C357.479 639.699 359.919 642.449 360.839 642.929C361.759 643.409 362.219 642.859 362.489 642.109" fill="white"/>
<path d="M362.009 638.129C362.009 638.129 360.359 635.719 358.919 637.709C357.479 639.699 359.919 642.449 360.839 642.929C361.759 643.409 362.219 642.859 362.489 642.109" stroke="#263238" stroke-miterlimit="10"/>
<path d="M360.979 623.5C356.549 622.06 351.769 623.73 349.859 625.77C347.949 627.81 346.309 630.18 346.429 633.17C346.084 634.691 346.209 636.281 346.789 637.73C347.059 638.47 347.379 639.37 347.709 640.3H347.799C350.702 640.771 353.68 640.316 356.309 639C360.769 636.8 367.989 632.82 368.669 631.51C368.762 631.365 368.894 631.251 369.049 631.18C367.969 629.14 365.209 624.87 360.979 623.5Z" fill="#92E3A9" stroke="#263238" stroke-miterlimit="10"/>
<path d="M365.92 633.94C365.92 633.94 371.28 634.07 374.17 632.63C377.06 631.19 376.57 628.51 376.02 628.31C375.47 628.11 367.85 629.06 367.85 629.06C368.004 629.972 367.906 630.909 367.565 631.769C367.225 632.629 366.656 633.38 365.92 633.94Z" fill="#92E3A9" stroke="#263238" stroke-miterlimit="10"/>
<path d="M368.639 637.13C368.639 637.75 368.449 638.26 368.209 638.26C367.969 638.26 367.779 637.75 367.779 637.13C367.779 636.51 367.969 636 368.209 636C368.449 636 368.639 636.5 368.639 637.13Z" fill="#263238"/>
<path d="M366.6 658.67C365.428 656.683 363.958 654.889 362.24 653.35C359.007 651.229 355.383 649.777 351.58 649.08C349.26 648.89 349.93 650.15 349.64 651.5C349.35 652.85 349.06 653.35 349.84 653.5C353.016 654.174 356.103 655.215 359.04 656.6C363.79 658.83 366.21 660.18 366.7 659.89C367.19 659.6 366.6 658.67 366.6 658.67Z" fill="#263238" stroke="#263238" stroke-miterlimit="10"/>
<path d="M358.031 833.349C358.031 833.349 361.411 838.899 363.311 839.979C365.211 841.059 368.851 842.279 369.121 844.309C369.391 846.339 366.961 846.249 365.761 846.249C364.561 846.249 356.561 846.519 355.211 845.979C353.861 845.439 350.601 842.979 346.951 840.979C343.301 838.979 340.051 838.679 340.051 835.289C340.051 831.899 343.161 831.229 343.701 830.689C344.241 830.149 358.031 833.349 358.031 833.349Z" fill="white" stroke="#263238" stroke-miterlimit="10"/>
<path d="M345.309 738.889C345.309 738.889 348.689 770.829 348.819 772.449C348.949 774.069 346.659 779.889 345.709 785.039C344.759 790.189 343.549 804.389 343.549 804.389L343.949 832.389C343.949 832.389 352.069 834.289 353.289 834.149C354.509 834.009 357.619 833.479 358.029 833.339L360.729 832.339C360.729 832.339 360.189 822.999 360.189 820.029C360.189 817.059 362.089 797.969 362.489 796.029C362.889 794.089 367.639 766.259 368.309 751.509C368.701 742.449 368.111 733.373 366.549 724.439L343.279 725.659L345.309 738.889Z" fill="#92E3A9" stroke="#263238" stroke-miterlimit="10"/>
<path d="M351.13 833.89C351.13 833.89 353.13 838.76 354.13 839.58C355.13 840.4 361.03 842.69 361.31 843.77C361.59 844.85 360.49 845.77 359 846.21C357.51 846.65 346.82 846.61 344.66 845.53C342.5 844.45 335.73 839.44 333.83 838.63C331.93 837.82 328.83 836.73 329.64 833.35C330.45 829.97 334.51 827.35 334.51 827.35L351.13 833.89Z" fill="white" stroke="#263238" stroke-miterlimit="10"/>
<path d="M341.38 723.319C341.38 723.319 340.03 729.959 342.06 735.099C344.09 740.239 349.77 747.099 350.72 748.499C351.67 749.899 350.45 765.549 349.77 771.639C349.09 777.729 348.01 788.009 348.01 788.419C348.01 788.829 342.19 803.709 339.76 810.609C337.33 817.509 333.26 827.399 333.26 827.399C333.26 827.399 338.67 831.459 341.38 832.269C344.597 832.992 347.852 833.533 351.13 833.889C351.441 832.319 351.893 830.779 352.48 829.289C353.16 827.939 352.34 827.399 353.16 823.739C353.98 820.079 363.03 800.599 366.42 795.049C369.81 789.499 371.83 779.349 373.18 774.349C374.53 769.349 374.54 748.899 374.81 741.869C374.822 736.802 374.15 731.756 372.81 726.869L372.13 724.299L341.38 723.319Z" fill="#92E3A9" stroke="#263238" stroke-miterlimit="10"/>
<path d="M363.699 763.25C363.479 765.25 363.209 767.25 362.869 769.42" stroke="#263238" stroke-miterlimit="10"/>
<path d="M361.95 726.33C361.337 727.568 361.124 728.966 361.34 730.33C361.64 732.79 363.8 733.71 365.03 735.25C366.26 736.79 363.8 737.41 363.18 739.25C362.56 741.09 364.41 742.64 364.41 743.87C364.574 748.568 364.494 753.271 364.17 757.96" stroke="#263238" stroke-miterlimit="10"/>
<path d="M340.429 718.449C340.429 718.449 339.349 723.729 340.299 724.269C341.249 724.809 371.149 724.409 372.099 724.269C373.049 724.129 373.589 723.999 373.729 722.779C373.689 721.278 373.505 719.785 373.179 718.319L340.429 718.449Z" fill="#263238" stroke="#263238" stroke-miterlimit="10"/>
<path d="M349.84 653.54C349.84 653.54 340.76 659.06 338.5 666.25C336.24 673.44 339.38 705.33 339.38 705.33C339.38 705.33 336.83 716.33 339.21 718.58C341.59 720.83 371.97 720.27 373.33 719.25C374.092 718.605 374.7 717.798 375.11 716.888C375.52 715.978 375.721 714.988 375.7 713.99C375.7 711.79 376.38 692.43 376.38 681.57C376.494 674.09 373.833 666.833 368.91 661.2C366.6 658.69 365.01 658.31 365.01 658.31C365.01 658.31 352.83 653.54 349.84 653.54Z" fill="#92E3A9" stroke="#263238" stroke-miterlimit="10"/>
<path d="M343.99 677.01C344.661 678.319 345.42 679.582 346.26 680.79" stroke="#263238" stroke-miterlimit="10"/>
<path d="M343.18 665.71C343.18 665.71 341.33 667.56 342.13 671.86" stroke="#263238" stroke-miterlimit="10"/>
<path d="M364.649 661.4C364.649 661.4 370.319 660.27 374.109 662.26C377.899 664.25 384.039 670.34 385.679 671.15C387.319 671.96 390.179 674.79 392.539 675.41C394.899 676.03 398.809 677.34 398.809 677.34C398.809 677.34 410.289 676.54 411.639 676.43C412.989 676.32 422.499 676.49 422.499 676.49C422.864 677.709 423.105 678.962 423.219 680.23C423.319 681.361 423.319 682.498 423.219 683.63C421.799 684.489 420.318 685.244 418.789 685.89C417.859 686.1 409.619 688.27 402.459 690.48C395.299 692.69 384.229 690.94 376.719 689.02C369.209 687.1 351.719 679.86 350.869 679.44" fill="#92E3A9"/>
<path d="M364.649 661.4C364.649 661.4 370.319 660.27 374.109 662.26C377.899 664.25 384.039 670.34 385.679 671.15C387.319 671.96 390.179 674.79 392.539 675.41C394.899 676.03 398.809 677.34 398.809 677.34C398.809 677.34 410.289 676.54 411.639 676.43C412.989 676.32 422.499 676.49 422.499 676.49C422.864 677.709 423.105 678.962 423.219 680.23C423.319 681.361 423.319 682.498 423.219 683.63C421.799 684.489 420.318 685.244 418.789 685.89C417.859 686.1 409.619 688.27 402.459 690.48C395.299 692.69 384.229 690.94 376.719 689.02C369.209 687.1 351.719 679.86 350.869 679.44" stroke="#263238" stroke-miterlimit="10"/>
<path d="M387.25 684.39C385.721 684.853 384.156 685.188 382.57 685.39" stroke="#263238" stroke-miterlimit="10"/>
<path d="M398.57 679.25C395.951 680.838 393.201 682.2 390.35 683.32" stroke="#263238" stroke-miterlimit="10"/>
<path d="M366.009 684.75C366.009 684.75 360.459 695.31 353.699 700.05" stroke="#263238" stroke-miterlimit="10"/>
<path d="M358.569 702.069C357.281 703.577 355.877 704.982 354.369 706.269" stroke="#263238" stroke-miterlimit="10"/>
<path d="M366.279 691.79C366.279 691.79 363.849 695.57 360.689 699.53" stroke="#263238" stroke-miterlimit="10"/>
<path d="M422.5 676.49C422.5 676.49 424.61 674.14 426.01 672.9C427.25 671.941 428.564 671.081 429.94 670.33C430.77 669.76 431.3 667.08 432.5 667.99C432.715 668.117 432.9 668.288 433.043 668.493C433.186 668.698 433.283 668.931 433.327 669.177C433.372 669.423 433.363 669.675 433.301 669.917C433.24 670.159 433.127 670.385 432.97 670.58C432.53 671.37 431.53 672.95 431.21 673.58L430.89 674.24C432.516 674.649 434.171 674.933 435.84 675.09C437.34 675.09 441.49 675.25 441.68 675.99C441.87 676.73 441.3 677.52 440.93 677.55L435.45 678C435.45 678 439.66 680.41 439.69 680.78C439.72 681.15 438.77 681.86 437.69 682.2C436.61 682.54 434.95 683.93 433.21 684.07C430.73 684.136 428.249 684.005 425.79 683.68C424.945 683.562 424.09 683.538 423.24 683.61L422.5 676.49Z" fill="white" stroke="#263238" stroke-miterlimit="10"/>
<path d="M433.609 680.05L437.669 682.22" stroke="#263238" stroke-miterlimit="10"/>
<path d="M432.029 682.18L434.629 683.34" stroke="#263238" stroke-miterlimit="10"/>
<path d="M250.619 846.58H340.879V781.09H250.619V846.58Z" fill="#92E3A9" stroke="#263238" stroke-miterlimit="10"/>
<path d="M250.619 846.58H305.049V781.09H250.619V846.58Z" fill="#92E3A9" stroke="#263238" stroke-miterlimit="10"/>
<path d="M272.139 811.55H283.529V781.09H272.139V811.55Z" fill="white" stroke="#263238" stroke-miterlimit="10"/>
<path d="M237.749 769.8H164.529V835.29H237.749V769.8Z" fill="#92E3A9" stroke="#263238" stroke-miterlimit="10"/>
<path d="M237.76 769.8H193.6V835.29H237.76V769.8Z" fill="#92E3A9" stroke="#263238" stroke-miterlimit="10"/>
<path d="M220.289 769.8H211.049V800.26H220.289V769.8Z" fill="white" stroke="#263238" stroke-miterlimit="10"/>
<path d="M368.84 513H335V547.61H368.84V513Z" fill="white" stroke="#263238" stroke-miterlimit="10"/>
<path d="M657.84 513H624V547.61H657.84V513Z" fill="white" stroke="#263238" stroke-miterlimit="10"/>
<path d="M635.391 535.22H640.311C640.311 537.97 640.611 538.69 641.781 538.61C642.951 538.53 642.951 537 642.951 534.11C642.951 532.11 642.701 530.49 641.421 530.49C640.561 530.49 640.061 531.08 639.861 532.61H635.411L635.901 519.38H646.701V523.52H639.971L639.701 527.76C640.433 527.161 641.336 526.811 642.281 526.76C645.671 526.29 647.701 528.99 647.701 534.1C647.701 538.97 646.921 542.41 641.391 542.41C636.191 542.36 635.391 539.45 635.391 535.22Z" fill="#263238"/>
<path d="M353.345 540V536.687H343.249V532.339C344.165 530.574 345.213 528.719 346.393 526.774C347.582 524.82 349.13 522.418 351.037 519.567H358.259V532.637H360.808V536.687H358.259V540H353.345ZM347.653 532.679V532.821H353.487V523.079H353.388C352.019 525.118 350.914 526.831 350.074 528.219C349.243 529.597 348.436 531.084 347.653 532.679Z" fill="#263238"/>
</svg>
